<?xml version="1.0" encoding="UTF-8"?>
<svg xmlns="http://www.w3.org/2000/svg" xmlns:xlink="http://www.w3.org/1999/xlink" width="96" height="96" xml:space="preserve" overflow="hidden">
  <g transform="translate(-299 -13)">
    <path d="M359 31.8109C359 31.2156 359.682 30.8236 360.272 31.0798L367 34 360.272 36.9204C359.682 37.1762 359 36.7846 359 36.189L359 31.8109ZM367 34 373.729 31.0798C374.319 30.8236 375 31.2156 375 31.8109L375 36.189C375 36.7846 374.319 37.1762 373.729 36.9204L367 34ZM367.001 41.5C364.239 41.5 362.001 43.7386 362.001 46.5 362.001 49.2614 364.239 51.5 367.001 51.5 369.762 51.5 372.001 49.2614 372.001 46.5 372.001 43.7386 369.762 41.5 367.001 41.5ZM358.001 46.5C358.001 41.5294 362.03 37.5 367.001 37.5 371.971 37.5 376.001 41.5294 376.001 46.5 376.001 49.983 374.022 53.0038 371.128 54.5L372.001 54.5C373.673 54.5 375.234 55.3356 376.161 56.7266L384.161 68.7266C385.693 71.0242 385.072 74.1284 382.774 75.6602 381.597 76.4448 380.209 76.6646 378.929 76.3838L380.79 80.1056 382.237 83 379.001 83 377.001 83 377.001 87.5C377.001 90.2614 374.762 92.5 372.001 92.5 369.239 92.5 367.001 90.2614 367.001 87.5 367.001 90.2614 364.762 92.5 362.001 92.5 359.239 92.5 357.001 90.2614 357.001 87.5L357.001 83 355.001 83 351.765 83 353.212 80.1056 355.073 76.3838C353.792 76.6646 352.404 76.4448 351.227 75.6602 348.93 74.1284 348.309 71.0242 349.84 68.7266L357.84 56.7266C358.768 55.3356 360.329 54.5 362.001 54.5L362.874 54.5C359.979 53.0038 358.001 49.983 358.001 46.5ZM358.237 79 359.001 79 361.001 79 361.001 81 361.001 87.5C361.001 88.0522 361.448 88.5 362.001 88.5 362.553 88.5 363.001 88.0522 363.001 87.5L363.001 81 363.001 79 365.001 79 369.001 79 371.001 79 371.001 81 371.001 87.5C371.001 88.0522 371.448 88.5 372.001 88.5 372.553 88.5 373.001 88.0522 373.001 87.5L373.001 81 373.001 79 375.001 79 375.765 79 373.212 73.8944 373.001 73.4722 373.001 73 373.001 69.4084 373.001 62.8028 376.665 68.299 379.169 72.0546C379.475 72.5142 380.096 72.6384 380.555 72.332 381.015 72.0256 381.139 71.4048 380.833 70.9452L372.833 58.9452C372.647 58.6672 372.335 58.5 372.001 58.5L362.001 58.5C361.666 58.5 361.354 58.6672 361.169 58.9452L353.169 70.9452C352.862 71.4048 352.987 72.0256 353.446 72.332 353.906 72.6384 354.526 72.5142 354.833 72.0546L357.337 68.299 361.001 62.8028 361.001 69.4084 361.001 73 361.001 73.4722 360.79 73.8944 358.237 79ZM323.001 46.5566C323.001 43.7952 325.239 41.5566 328.001 41.5566 330.762 41.5566 333.001 43.7952 333.001 46.5566 333.001 49.318 330.762 51.5566 328.001 51.5566 325.239 51.5566 323.001 49.318 323.001 46.5566ZM328.001 37.5566C323.03 37.5566 319.001 41.586 319.001 46.5566 319.001 50.0396 320.979 53.0604 323.873 54.5566L322.001 54.5566C320.329 54.5566 318.768 55.3922 317.84 56.7832L309.84 68.7832C308.309 71.0808 308.929 74.1852 311.227 75.7168 313.039 76.9248 315.352 76.7942 317.001 75.5584L317.001 87.5566C317.001 90.318 319.239 92.5566 322.001 92.5566 324.762 92.5566 327.001 90.318 327.001 87.5566L327.001 79.5566 329.001 79.5566 329.001 87.5566C329.001 90.318 331.239 92.5566 334.001 92.5566 336.762 92.5566 339.001 90.318 339.001 87.5566L339.001 75.5584C340.649 76.7942 342.962 76.9248 344.774 75.7168 347.072 74.1852 347.693 71.0808 346.161 68.7832L338.161 56.7832C337.233 55.3922 335.672 54.5566 334.001 54.5566L332.128 54.5566C335.022 53.0604 337.001 50.0396 337.001 46.5566 337.001 41.586 332.971 37.5566 328.001 37.5566ZM321.168 59.002C321.354 58.7238 321.666 58.5566 322.001 58.5566L334.001 58.5566C334.335 58.5566 334.647 58.7238 334.833 59.002L342.833 71.002C343.139 71.4614 343.015 72.0824 342.555 72.3886 342.096 72.695 341.475 72.5708 341.168 72.1114L338.665 68.3556 335.001 62.8594 335.001 69.465 335.001 87.5566C335.001 88.109 334.553 88.5566 334.001 88.5566 333.448 88.5566 333.001 88.109 333.001 87.5566L333.001 77.5566 333.001 75.5566 331.001 75.5566 325.001 75.5566 323.001 75.5566 323.001 77.5566 323.001 87.5566C323.001 88.109 322.553 88.5566 322.001 88.5566 321.448 88.5566 321.001 88.109 321.001 87.5566L321.001 69.465 321.001 62.8594 317.336 68.3556 314.833 72.1114C314.526 72.5708 313.905 72.695 313.446 72.3886 312.986 72.0824 312.862 71.4614 313.168 71.002L321.168 59.002Z" fill="#91BF38" fill-rule="evenodd"></path>
  </g>
</svg>
