<?xml version="1.0" encoding="UTF-8"?>
<svg xmlns="http://www.w3.org/2000/svg" xmlns:xlink="http://www.w3.org/1999/xlink" width="48" height="48" xml:space="preserve" overflow="hidden">
  <g transform="translate(-886 -146)">
    <path d="M925.211 153.117C923.098 150.473 917.611 146 910.444 146 905.652 146 901.093 148.003 896.892 151.954 896.885 151.961 896.878 151.968 896.871 151.975 892.774 156.189 893.31 160.082 893.987 165.013 894.029 165.316 894.071 165.624 894.113 165.936 894.226 166.774 893.492 168.066 892.783 169.317 891.717 171.195 890.615 173.138 891.961 174.055 894.262 175.623 894.662 178.71 895.049 181.696 895.141 182.405 895.236 183.138 895.355 183.851 895.559 185.081 896.597 185.679 898.527 185.679 899.385 185.679 900.302 185.573 901.189 185.471 901.949 185.383 902.667 185.3 903.241 185.3 903.563 185.3 903.814 185.326 904.008 185.378 906.327 186.007 908.353 190.695 909.085 193.503 909.145 193.731 909.32 193.91 909.547 193.975 909.607 193.992 909.668 194 909.728 194 909.897 194 910.062 193.936 910.187 193.816L922.072 182.474C922.256 182.298 922.323 182.033 922.246 181.791 921.197 178.508 923.377 175.303 925.302 172.475 926.142 171.241 926.935 170.075 927.477 168.927 929.98 163.631 928.177 156.828 925.211 153.117ZM908.464 162.809 903.235 162.809C902.062 162.809 901.106 161.854 901.106 160.679L901.106 155.355C901.106 154.181 902.062 153.226 903.235 153.226L909.072 153.226 908.148 154.727 903.235 154.727C902.889 154.727 902.608 155.009 902.608 155.355L902.608 160.679C902.608 161.026 902.889 161.307 903.235 161.307L908.748 161.307 908.464 162.809ZM909.436 165.316C909.393 165.385 909.331 165.422 909.267 165.422 909.234 165.422 909.201 165.412 909.17 165.392 909.08 165.332 909.032 165.197 909.057 165.066L910.053 159.788 907.187 158.844C907.115 158.821 907.057 158.75 907.034 158.657 907.01 158.564 907.024 158.462 907.071 158.386L911.791 150.718C911.855 150.614 911.965 150.582 912.056 150.643 912.147 150.703 912.194 150.838 912.169 150.968L911.168 156.245 914.034 157.188C914.106 157.212 914.164 157.283 914.188 157.375 914.211 157.468 914.197 157.571 914.15 157.647L909.436 165.316ZM921.045 159.171C921.045 159.413 920.849 159.608 920.608 159.608L920.115 159.608 920.115 160.679C920.115 161.854 919.16 162.809 917.986 162.809L912.152 162.809 913.075 161.307 917.986 161.307C918.331 161.307 918.613 161.026 918.613 160.679L918.613 155.355C918.613 155.009 918.331 154.727 917.986 154.727L912.475 154.727 912.76 153.226 917.986 153.226C919.159 153.226 920.115 154.181 920.115 155.355L920.115 156.426 920.608 156.426C920.849 156.426 921.045 156.622 921.045 156.864L921.045 159.171 921.045 159.171Z" fill="#FFFFFF"></path>
  </g>
</svg>
