<?xml version="1.0" encoding="UTF-8"?>
<svg xmlns="http://www.w3.org/2000/svg" xmlns:xlink="http://www.w3.org/1999/xlink" width="48" height="48" xml:space="preserve" overflow="hidden">
  <g transform="translate(-280 0)">
    <path d="M280 1.325 280 46.6582 314.667 46.6582 314.667 38.6582 312 38.6582 312 43.9918 282.667 43.9918 282.667 3.99168 312 3.99168 312 9.325 314.667 9.325 314.667 1.325Z" fill="#FFFFFF"></path>
    <path d="M310.667 35.9918C313.5 35.9918 316.104 35.0098 318.157 33.3677L325.716 40.934C326.237 41.455 327.081 41.4552 327.602 40.935 328.122 40.4145 328.123 39.5703 327.603 39.0493L320.042 31.4823C321.685 29.4293 322.667 26.825 322.667 23.9917 322.667 17.3643 317.294 11.9917 310.667 11.9917 304.039 11.9917 298.667 17.3643 298.667 23.9917 298.667 30.619 304.039 35.9918 310.667 35.9918ZM310.667 33.325C315.821 33.325 320 29.1462 320 23.9917 320 18.837 315.821 14.6583 310.667 14.6583 305.512 14.6583 301.333 18.837 301.333 23.9917 301.333 29.1462 305.512 33.325 310.667 33.325Z" fill="#FFFFFF" fill-rule="evenodd"></path>
  </g>
</svg>
