<?xml version="1.0" encoding="UTF-8"?>
<svg xmlns="http://www.w3.org/2000/svg" xmlns:xlink="http://www.w3.org/1999/xlink" width="48" height="48" xml:space="preserve" overflow="hidden">
  <defs>
    <clipPath id="clip0">
      <rect x="727" y="163" width="48" height="48"></rect>
    </clipPath>
  </defs>
  <g clip-path="url(#clip0)" transform="translate(-727 -163)">
    <path d="M775 164.805C775 163.858 774.232 163.091 773.286 163.091L755.956 163.091 755.956 169.996C756.386 169.756 756.881 169.62 757.408 169.62 759.06 169.62 760.4 170.96 760.4 172.613 760.4 174.265 759.06 175.605 757.408 175.605 756.881 175.605 756.386 175.468 755.956 175.23L755.956 182.134 762.861 182.134C762.622 182.564 762.485 183.059 762.485 183.585 762.485 185.238 763.825 186.578 765.478 186.578 767.131 186.578 768.47 185.238 768.47 183.585 768.47 183.059 768.333 182.564 768.095 182.134L775 182.134 775 164.805Z" fill="#FFFFFF"></path>
    <path d="M767.276 188.816 758.577 188.816C758.272 188.816 757.991 188.977 757.836 189.238L757.845 189.224 757.835 189.24C757.756 189.373 757.716 189.525 757.716 189.675 757.716 189.819 757.753 189.964 757.825 190.094L758.373 191.081C758.496 191.303 758.556 191.537 758.557 191.792 758.557 192.186 758.405 192.549 758.127 192.829 757.848 193.107 757.484 193.258 757.09 193.26 756.696 193.258 756.332 193.107 756.052 192.829L756.053 192.831C755.774 192.549 755.623 192.185 755.623 191.792 755.623 191.538 755.684 191.303 755.806 191.08L756.355 190.094C756.427 189.964 756.463 189.82 756.463 189.675 756.463 189.525 756.424 189.374 756.344 189.238 756.189 188.976 755.907 188.816 755.603 188.816L749.094 188.816 749.094 185.33C750.27 185.312 751.381 184.848 752.214 184.014 753.066 183.164 753.538 182.024 753.537 180.82 753.538 179.614 753.065 178.474 752.214 177.625 751.382 176.791 750.271 176.328 749.094 176.31L749.094 170.633C749.093 170.158 748.708 169.773 748.234 169.773L730.239 169.773C729.376 169.772 728.557 170.11 727.948 170.721 727.344 171.325 727.001 172.156 727 173.012L727 207.67C726.999 208.533 727.338 209.351 727.948 209.96 728.553 210.565 729.382 210.908 730.239 210.909L764.901 210.909C765.755 210.908 766.585 210.565 767.189 209.96 767.799 209.351 768.137 208.533 768.136 207.67L768.136 189.676C768.136 189.201 767.751 188.816 767.276 188.816ZM729.66 173.012C729.66 172.814 729.752 172.679 729.828 172.603 729.906 172.525 730.041 172.432 730.239 172.432L746.434 172.432 746.434 179.332C746.434 179.499 746.522 179.652 746.665 179.737 746.739 179.78 746.821 179.801 746.903 179.801 746.982 179.801 747.06 179.782 747.131 179.742L748.118 179.194C748.396 179.04 748.7 178.961 749.019 178.961 749.515 178.961 749.982 179.154 750.333 179.505 750.684 179.857 750.877 180.324 750.877 180.82 750.877 181.315 750.684 181.782 750.333 182.133 749.982 182.485 749.515 182.678 749.019 182.678 748.699 182.678 748.396 182.599 748.119 182.445L747.131 181.896C747.06 181.857 746.982 181.838 746.903 181.838 746.821 181.838 746.739 181.859 746.665 181.903 746.522 181.987 746.434 182.14 746.434 182.307L746.434 189.207 742.161 189.207C742.17 189.101 742.174 188.995 742.174 188.89 742.174 187.787 741.744 186.75 740.965 185.972 740.187 185.192 739.15 184.763 738.047 184.763 736.944 184.763 735.908 185.193 735.129 185.971 734.349 186.749 733.92 187.787 733.92 188.889 733.92 188.995 733.924 189.1 733.933 189.207L729.66 189.207 729.66 173.012ZM746.434 208.25 730.239 208.25C730.041 208.25 729.906 208.157 729.83 208.081 729.752 208.003 729.66 207.868 729.66 207.67L729.66 191.474 736.56 191.474C736.726 191.474 736.88 191.386 736.964 191.244 737.048 191.1 737.051 190.923 736.97 190.778L736.422 189.79C736.267 189.512 736.189 189.208 736.189 188.89 736.189 188.394 736.383 187.927 736.732 187.576 737.085 187.225 737.552 187.031 738.047 187.031 738.542 187.031 739.009 187.225 739.36 187.575 739.711 187.927 739.905 188.394 739.905 188.889 739.905 189.209 739.826 189.512 739.673 189.79L739.124 190.777C739.043 190.923 739.045 191.1 739.13 191.243 739.214 191.386 739.368 191.474 739.534 191.474L746.434 191.474 746.434 195.748C746.328 195.74 746.222 195.736 746.117 195.736 745.014 195.736 743.977 196.165 743.2 196.944 742.42 197.723 741.99 198.759 741.991 199.862 741.99 200.965 742.42 202.002 743.199 202.78 743.977 203.56 745.014 203.989 746.117 203.989 746.223 203.989 746.329 203.985 746.434 203.976L746.434 208.25ZM765.477 207.67C765.477 207.868 765.384 208.003 765.308 208.08 765.23 208.157 765.095 208.25 764.898 208.25L748.703 208.25 748.703 201.35C748.703 201.183 748.615 201.03 748.471 200.946 748.398 200.902 748.316 200.881 748.234 200.881 748.155 200.881 748.077 200.9 748.006 200.94L747.017 201.488C746.74 201.642 746.437 201.721 746.117 201.721 745.622 201.721 745.155 201.527 744.804 201.177 744.453 200.826 744.259 200.359 744.259 199.863 744.259 199.367 744.453 198.9 744.804 198.549 745.155 198.198 745.621 198.004 746.117 198.003 746.435 198.003 746.738 198.082 747.018 198.236L748.006 198.785C748.077 198.825 748.155 198.844 748.234 198.844 748.316 198.844 748.398 198.823 748.471 198.78 748.615 198.695 748.703 198.542 748.703 198.375L748.703 191.474 752.976 191.474C752.967 191.58 752.963 191.687 752.963 191.792 752.963 192.894 753.392 193.93 754.171 194.709 754.95 195.49 755.987 195.919 757.09 195.919 758.193 195.919 759.229 195.49 760.008 194.71 760.788 193.932 761.216 192.895 761.216 191.792 761.216 191.687 761.212 191.581 761.204 191.474L765.477 191.474 765.477 207.67Z" fill="#FFFFFF"></path>
  </g>
</svg>
