<?xml version="1.0" encoding="UTF-8"?>
<svg xmlns="http://www.w3.org/2000/svg" xmlns:xlink="http://www.w3.org/1999/xlink" width="48" height="48" xml:space="preserve" overflow="hidden">
  <g transform="translate(-781 -61)">
    <path d="M822.806 61.0117 787.581 61.0002C783.952 61.0002 781 63.9521 781 67.5807L781 109 817.387 109 817.387 77.6724 818.991 76.6032 822.032 78.1237 825.129 76.5753 829 78.5108 829 67.5807C829 64.0822 826.255 61.2123 822.806 61.0117ZM815.839 67.5807 815.839 107.451 782.548 107.451 782.548 67.5807C782.548 64.806 784.806 62.5486 787.581 62.5486L818.183 62.5486C816.75 63.757 815.839 65.5648 815.839 67.5807ZM827.451 76.0054 825.129 74.8441 822.032 76.3925 818.88 74.8163 817.387 75.8112 817.387 67.5807C817.387 64.806 819.645 62.5486 822.419 62.5486 825.194 62.5486 827.451 64.8062 827.451 67.5807L827.451 76.0054Z" fill="#FFFFFF"></path>
    <path d="M803.999 77.8055 807.322 74.4819 810.646 77.8055 811.741 76.7107 808.417 73.3871 811.741 70.0637 810.646 68.9688 807.322 72.2924 803.999 68.9688 802.904 70.0637 806.228 73.3871 802.904 76.7107Z" fill="#FFFFFF"></path>
    <path d="M795.514 70.8053 794.356 69.7756 788.829 75.9939 787.838 74.5058 786.549 75.3652 788.654 78.5223Z" fill="#FFFFFF"></path>
    <path d="M784.871 80.3549 797.258 80.3549 797.258 81.9034 784.871 81.9034Z" fill="#FFFFFF"></path>
    <path d="M784.871 84.2258 797.258 84.2258 797.258 85.7742 784.871 85.7742Z" fill="#FFFFFF"></path>
    <path d="M784.871 88.0968 797.258 88.0968 797.258 89.6452 784.871 89.6452Z" fill="#FFFFFF"></path>
    <path d="M784.871 91.9677 797.258 91.9677 797.258 93.5161 784.871 93.5161Z" fill="#FFFFFF"></path>
    <path d="M784.871 95.8387 797.258 95.8387 797.258 97.3871 784.871 97.3871Z" fill="#FFFFFF"></path>
    <path d="M784.871 99.7095 791.065 99.7095 791.065 101.258 784.871 101.258Z" fill="#FFFFFF"></path>
    <path d="M801.129 80.3549 813.516 80.3549 813.516 81.9034 801.129 81.9034Z" fill="#FFFFFF"></path>
    <path d="M801.129 84.2258 813.516 84.2258 813.516 85.7742 801.129 85.7742Z" fill="#FFFFFF"></path>
    <path d="M801.129 88.0968 813.516 88.0968 813.516 89.6452 801.129 89.6452Z" fill="#FFFFFF"></path>
    <path d="M801.129 91.9677 810.419 91.9677 810.419 93.5161 801.129 93.5161Z" fill="#FFFFFF"></path>
  </g>
</svg>
