<?xml version="1.0" encoding="UTF-8"?>
<svg xmlns="http://www.w3.org/2000/svg" xmlns:xlink="http://www.w3.org/1999/xlink" width="48" height="48" xml:space="preserve" overflow="hidden">
  <g transform="translate(-998 -385)">
    <path d="M1029.26 427.352C1029.26 427.798 1028.9 428.159 1028.46 428.159 1028.01 428.159 1027.65 427.798 1027.65 427.352 1027.65 426.906 1028.01 426.545 1028.46 426.545 1028.9 426.545 1029.26 426.906 1029.26 427.352Z" fill="#FFFFFF"></path>
    <path d="M1026.03 427.352C1026.03 427.798 1025.67 428.159 1025.23 428.159 1024.78 428.159 1024.42 427.798 1024.42 427.352 1024.42 426.906 1024.78 426.545 1025.23 426.545 1025.67 426.545 1026.03 426.906 1026.03 427.352Z" fill="#FFFFFF"></path>
    <path d="M1027.65 425.738C1027.65 426.184 1027.29 426.545 1026.84 426.545 1026.4 426.545 1026.03 426.184 1026.03 425.738 1026.03 425.292 1026.4 424.931 1026.84 424.931 1027.29 424.931 1027.65 425.292 1027.65 425.738Z" fill="#FFFFFF"></path>
    <path d="M1030.88 425.738C1030.88 426.184 1030.52 426.545 1030.07 426.545 1029.62 426.545 1029.26 426.184 1029.26 425.738 1029.26 425.292 1029.62 424.931 1030.07 424.931 1030.52 424.931 1030.88 425.292 1030.88 425.738Z" fill="#FFFFFF"></path>
    <path d="M1024.42 425.738C1024.42 426.184 1024.06 426.545 1023.61 426.545 1023.17 426.545 1022.81 426.184 1022.81 425.738 1022.81 425.292 1023.17 424.931 1023.61 424.931 1024.06 424.931 1024.42 425.292 1024.42 425.738Z" fill="#FFFFFF"></path>
    <path d="M1030.88 422.51C1030.88 422.956 1030.52 423.317 1030.07 423.317 1029.62 423.317 1029.26 422.956 1029.26 422.51 1029.26 422.064 1029.62 421.703 1030.07 421.703 1030.52 421.703 1030.88 422.064 1030.88 422.51Z" fill="#FFFFFF"></path>
    <path d="M1026.03 420.896C1026.03 421.342 1025.67 421.703 1025.23 421.703 1024.78 421.703 1024.42 421.342 1024.42 420.896 1024.42 420.45 1024.78 420.089 1025.23 420.089 1025.67 420.089 1026.03 420.45 1026.03 420.896Z" fill="#FFFFFF"></path>
    <path d="M1027.65 419.282C1027.65 419.728 1027.29 420.089 1026.84 420.089 1026.4 420.089 1026.03 419.728 1026.03 419.282 1026.03 418.836 1026.4 418.475 1026.84 418.475 1027.29 418.475 1027.65 418.836 1027.65 419.282Z" fill="#FFFFFF"></path>
    <path d="M1030.88 419.282C1030.88 419.728 1030.52 420.089 1030.07 420.089 1029.62 420.089 1029.26 419.728 1029.26 419.282 1029.26 418.836 1029.62 418.475 1030.07 418.475 1030.52 418.475 1030.88 418.836 1030.88 419.282Z" fill="#FFFFFF"></path>
    <path d="M1024.42 419.282C1024.42 419.728 1024.06 420.089 1023.61 420.089 1023.17 420.089 1022.81 419.728 1022.81 419.282 1022.81 418.836 1023.17 418.475 1023.61 418.475 1024.06 418.475 1024.42 418.836 1024.42 419.282Z" fill="#FFFFFF"></path>
    <path d="M1029.26 417.668C1029.26 418.114 1028.9 418.475 1028.46 418.475 1028.01 418.475 1027.65 418.114 1027.65 417.668 1027.65 417.222 1028.01 416.861 1028.46 416.861 1028.9 416.861 1029.26 417.222 1029.26 417.668Z" fill="#FFFFFF"></path>
    <path d="M1029.26 414.44C1029.26 414.886 1028.9 415.247 1028.46 415.247 1028.01 415.247 1027.65 414.886 1027.65 414.44 1027.65 413.994 1028.01 413.633 1028.46 413.633 1028.9 413.633 1029.26 413.994 1029.26 414.44Z" fill="#FFFFFF"></path>
    <path d="M1026.03 414.44C1026.03 414.886 1025.67 415.247 1025.23 415.247 1024.78 415.247 1024.42 414.886 1024.42 414.44 1024.42 413.994 1024.78 413.633 1025.23 413.633 1025.67 413.633 1026.03 413.994 1026.03 414.44Z" fill="#FFFFFF"></path>
    <path d="M1024.42 412.826C1024.42 413.272 1024.06 413.633 1023.61 413.633 1023.17 413.633 1022.81 413.272 1022.81 412.826 1022.81 412.38 1023.17 412.019 1023.61 412.019 1024.06 412.019 1024.42 412.38 1024.42 412.826Z" fill="#FFFFFF"></path>
    <path d="M1026.03 411.212C1026.03 411.658 1025.67 412.019 1025.23 412.019 1024.78 412.019 1024.42 411.658 1024.42 411.212 1024.42 410.766 1024.78 410.405 1025.23 410.405 1025.67 410.405 1026.03 410.766 1026.03 411.212Z" fill="#FFFFFF"></path>
    <path d="M1027.65 409.598C1027.65 410.044 1027.29 410.405 1026.84 410.405 1026.4 410.405 1026.03 410.044 1026.03 409.598 1026.03 409.152 1026.4 408.791 1026.84 408.791 1027.29 408.791 1027.65 409.152 1027.65 409.598Z" fill="#FFFFFF"></path>
    <path d="M1030.88 409.598C1030.88 410.044 1030.52 410.405 1030.07 410.405 1029.62 410.405 1029.26 410.044 1029.26 409.598 1029.26 409.152 1029.62 408.791 1030.07 408.791 1030.52 408.791 1030.88 409.152 1030.88 409.598Z" fill="#FFFFFF"></path>
    <path d="M1024.42 409.598C1024.42 410.044 1024.06 410.405 1023.61 410.405 1023.17 410.405 1022.81 410.044 1022.81 409.598 1022.81 409.152 1023.17 408.791 1023.61 408.791 1024.06 408.791 1024.42 409.152 1024.42 409.598Z" fill="#FFFFFF"></path>
    <path d="M1029.26 407.984C1029.26 408.43 1028.9 408.791 1028.46 408.791 1028.01 408.791 1027.65 408.43 1027.65 407.984 1027.65 407.538 1028.01 407.177 1028.46 407.177 1028.9 407.177 1029.26 407.538 1029.26 407.984Z" fill="#FFFFFF"></path>
    <path d="M1027.65 406.37C1027.65 406.816 1027.29 407.177 1026.84 407.177 1026.4 407.177 1026.03 406.816 1026.03 406.37 1026.03 405.924 1026.4 405.563 1026.84 405.563 1027.29 405.563 1027.65 405.924 1027.65 406.37Z" fill="#FFFFFF"></path>
    <path d="M1030.88 406.37C1030.88 406.816 1030.52 407.177 1030.07 407.177 1029.62 407.177 1029.26 406.816 1029.26 406.37 1029.26 405.924 1029.62 405.563 1030.07 405.563 1030.52 405.563 1030.88 405.924 1030.88 406.37Z" fill="#FFFFFF"></path>
    <path d="M1026.03 404.756C1026.03 405.202 1025.67 405.563 1025.23 405.563 1024.78 405.563 1024.42 405.202 1024.42 404.756 1024.42 404.31 1024.78 403.949 1025.23 403.949 1025.67 403.949 1026.03 404.31 1026.03 404.756Z" fill="#FFFFFF"></path>
    <path d="M1027.65 403.142C1027.65 403.588 1027.29 403.949 1026.84 403.949 1026.4 403.949 1026.03 403.588 1026.03 403.142 1026.03 402.696 1026.4 402.335 1026.84 402.335 1027.29 402.335 1027.65 402.696 1027.65 403.142Z" fill="#FFFFFF"></path>
    <path d="M1029.26 401.528C1029.26 401.974 1028.9 402.335 1028.46 402.335 1028.01 402.335 1027.65 401.974 1027.65 401.528 1027.65 401.082 1028.01 400.721 1028.46 400.721 1028.9 400.721 1029.26 401.082 1029.26 401.528Z" fill="#FFFFFF"></path>
    <path d="M1026.03 401.528C1026.03 401.974 1025.67 402.335 1025.23 402.335 1024.78 402.335 1024.42 401.974 1024.42 401.528 1024.42 401.082 1024.78 400.721 1025.23 400.721 1025.67 400.721 1026.03 401.082 1026.03 401.528Z" fill="#FFFFFF"></path>
    <path d="M1024.42 399.914C1024.42 400.36 1024.06 400.721 1023.61 400.721 1023.17 400.721 1022.81 400.36 1022.81 399.914 1022.81 399.468 1023.17 399.107 1023.61 399.107 1024.06 399.107 1024.42 399.468 1024.42 399.914Z" fill="#FFFFFF"></path>
    <path d="M1029.26 398.3C1029.26 398.746 1028.9 399.107 1028.46 399.107 1028.01 399.107 1027.65 398.746 1027.65 398.3 1027.65 397.854 1028.01 397.493 1028.46 397.493 1028.9 397.493 1029.26 397.854 1029.26 398.3Z" fill="#FFFFFF"></path>
    <path d="M1026.03 398.3C1026.03 398.746 1025.67 399.107 1025.23 399.107 1024.78 399.107 1024.42 398.746 1024.42 398.3 1024.42 397.854 1024.78 397.493 1025.23 397.493 1025.67 397.493 1026.03 397.854 1026.03 398.3Z" fill="#FFFFFF"></path>
    <path d="M1027.65 396.686C1027.65 397.132 1027.29 397.493 1026.84 397.493 1026.4 397.493 1026.03 397.132 1026.03 396.686 1026.03 396.24 1026.4 395.879 1026.84 395.879 1027.29 395.879 1027.65 396.24 1027.65 396.686Z" fill="#FFFFFF"></path>
    <path d="M1030.88 396.686C1030.88 397.132 1030.52 397.493 1030.07 397.493 1029.62 397.493 1029.26 397.132 1029.26 396.686 1029.26 396.24 1029.62 395.879 1030.07 395.879 1030.52 395.879 1030.88 396.24 1030.88 396.686Z" fill="#FFFFFF"></path>
    <path d="M1029.26 395.072C1029.26 395.518 1028.9 395.879 1028.46 395.879 1028.01 395.879 1027.65 395.518 1027.65 395.072 1027.65 394.626 1028.01 394.265 1028.46 394.265 1028.9 394.265 1029.26 394.626 1029.26 395.072Z" fill="#FFFFFF"></path>
    <path d="M1026.03 395.072C1026.03 395.518 1025.67 395.879 1025.23 395.879 1024.78 395.879 1024.42 395.518 1024.42 395.072 1024.42 394.626 1024.78 394.265 1025.23 394.265 1025.67 394.265 1026.03 394.626 1026.03 395.072Z" fill="#FFFFFF"></path>
    <path d="M1024.42 393.458C1024.42 393.904 1024.06 394.265 1023.61 394.265 1023.17 394.265 1022.81 393.904 1022.81 393.458 1022.81 393.012 1023.17 392.651 1023.61 392.651 1024.06 392.651 1024.42 393.012 1024.42 393.458Z" fill="#FFFFFF"></path>
    <path d="M1029.26 391.844C1029.26 392.29 1028.9 392.651 1028.46 392.651 1028.01 392.651 1027.65 392.29 1027.65 391.844 1027.65 391.398 1028.01 391.037 1028.46 391.037 1028.9 391.037 1029.26 391.398 1029.26 391.844Z" fill="#FFFFFF"></path>
    <path d="M1030.88 390.23C1030.88 390.676 1030.52 391.037 1030.07 391.037 1029.62 391.037 1029.26 390.676 1029.26 390.23 1029.26 389.784 1029.62 389.423 1030.07 389.423 1030.52 389.423 1030.88 389.784 1030.88 390.23Z" fill="#FFFFFF"></path>
    <path d="M1026.03 388.616C1026.03 389.062 1025.67 389.423 1025.23 389.423 1024.78 389.423 1024.42 389.062 1024.42 388.616 1024.42 388.17 1024.78 387.809 1025.23 387.809 1025.67 387.809 1026.03 388.17 1026.03 388.616Z" fill="#FFFFFF"></path>
    <path d="M1032.49 424.124C1032.49 424.57 1032.13 424.931 1031.68 424.931 1031.24 424.931 1030.88 424.57 1030.88 424.124 1030.88 423.678 1031.24 423.317 1031.68 423.317 1032.13 423.317 1032.49 423.678 1032.49 424.124Z" fill="#FFFFFF"></path>
    <path d="M1035.72 420.896C1035.72 421.342 1035.36 421.703 1034.91 421.703 1034.47 421.703 1034.1 421.342 1034.1 420.896 1034.1 420.45 1034.47 420.089 1034.91 420.089 1035.36 420.089 1035.72 420.45 1035.72 420.896Z" fill="#FFFFFF"></path>
    <path d="M1034.1 419.282C1034.1 419.728 1033.74 420.089 1033.3 420.089 1032.85 420.089 1032.49 419.728 1032.49 419.282 1032.49 418.836 1032.85 418.475 1033.3 418.475 1033.74 418.475 1034.1 418.836 1034.1 419.282Z" fill="#FFFFFF"></path>
    <path d="M1035.72 417.668C1035.72 418.114 1035.36 418.475 1034.91 418.475 1034.47 418.475 1034.1 418.114 1034.1 417.668 1034.1 417.222 1034.47 416.861 1034.91 416.861 1035.36 416.861 1035.72 417.222 1035.72 417.668Z" fill="#FFFFFF"></path>
    <path d="M1037.33 416.054C1037.33 416.5 1036.97 416.861 1036.53 416.861 1036.08 416.861 1035.72 416.5 1035.72 416.054 1035.72 415.608 1036.08 415.247 1036.53 415.247 1036.97 415.247 1037.33 415.608 1037.33 416.054Z" fill="#FFFFFF"></path>
    <path d="M1035.72 414.44C1035.72 414.886 1035.36 415.247 1034.91 415.247 1034.47 415.247 1034.1 414.886 1034.1 414.44 1034.1 413.994 1034.47 413.633 1034.91 413.633 1035.36 413.633 1035.72 413.994 1035.72 414.44Z" fill="#FFFFFF"></path>
    <path d="M1032.49 414.44C1032.49 414.886 1032.13 415.247 1031.68 415.247 1031.24 415.247 1030.88 414.886 1030.88 414.44 1030.88 413.994 1031.24 413.633 1031.68 413.633 1032.13 413.633 1032.49 413.994 1032.49 414.44Z" fill="#FFFFFF"></path>
    <path d="M1035.72 411.212C1035.72 411.658 1035.36 412.019 1034.91 412.019 1034.47 412.019 1034.1 411.658 1034.1 411.212 1034.1 410.766 1034.47 410.405 1034.91 410.405 1035.36 410.405 1035.72 410.766 1035.72 411.212Z" fill="#FFFFFF"></path>
    <path d="M1038.95 411.212C1038.95 411.658 1038.59 412.019 1038.14 412.019 1037.69 412.019 1037.33 411.658 1037.33 411.212 1037.33 410.766 1037.69 410.405 1038.14 410.405 1038.59 410.405 1038.95 410.766 1038.95 411.212Z" fill="#FFFFFF"></path>
    <path d="M1032.49 411.212C1032.49 411.658 1032.13 412.019 1031.68 412.019 1031.24 412.019 1030.88 411.658 1030.88 411.212 1030.88 410.766 1031.24 410.405 1031.68 410.405 1032.13 410.405 1032.49 410.766 1032.49 411.212Z" fill="#FFFFFF"></path>
    <path d="M1035.72 407.984C1035.72 408.43 1035.36 408.791 1034.91 408.791 1034.47 408.791 1034.1 408.43 1034.1 407.984 1034.1 407.538 1034.47 407.177 1034.91 407.177 1035.36 407.177 1035.72 407.538 1035.72 407.984Z" fill="#FFFFFF"></path>
    <path d="M1038.95 407.984C1038.95 408.43 1038.59 408.791 1038.14 408.791 1037.69 408.791 1037.33 408.43 1037.33 407.984 1037.33 407.538 1037.69 407.177 1038.14 407.177 1038.59 407.177 1038.95 407.538 1038.95 407.984Z" fill="#FFFFFF"></path>
    <path d="M1034.1 406.37C1034.1 406.816 1033.74 407.177 1033.3 407.177 1032.85 407.177 1032.49 406.816 1032.49 406.37 1032.49 405.924 1032.85 405.563 1033.3 405.563 1033.74 405.563 1034.1 405.924 1034.1 406.37Z" fill="#FFFFFF"></path>
    <path d="M1035.72 404.756C1035.72 405.202 1035.36 405.563 1034.91 405.563 1034.47 405.563 1034.1 405.202 1034.1 404.756 1034.1 404.31 1034.47 403.949 1034.91 403.949 1035.36 403.949 1035.72 404.31 1035.72 404.756Z" fill="#FFFFFF"></path>
    <path d="M1037.33 403.142C1037.33 403.588 1036.97 403.949 1036.53 403.949 1036.08 403.949 1035.72 403.588 1035.72 403.142 1035.72 402.696 1036.08 402.335 1036.53 402.335 1036.97 402.335 1037.33 402.696 1037.33 403.142Z" fill="#FFFFFF"></path>
    <path d="M1034.1 403.142C1034.1 403.588 1033.74 403.949 1033.3 403.949 1032.85 403.949 1032.49 403.588 1032.49 403.142 1032.49 402.696 1032.85 402.335 1033.3 402.335 1033.74 402.335 1034.1 402.696 1034.1 403.142Z" fill="#FFFFFF"></path>
    <path d="M1035.72 401.528C1035.72 401.974 1035.36 402.335 1034.91 402.335 1034.47 402.335 1034.1 401.974 1034.1 401.528 1034.1 401.082 1034.47 400.721 1034.91 400.721 1035.36 400.721 1035.72 401.082 1035.72 401.528Z" fill="#FFFFFF"></path>
    <path d="M1032.49 401.528C1032.49 401.974 1032.13 402.335 1031.68 402.335 1031.24 402.335 1030.88 401.974 1030.88 401.528 1030.88 401.082 1031.24 400.721 1031.68 400.721 1032.13 400.721 1032.49 401.082 1032.49 401.528Z" fill="#FFFFFF"></path>
    <path d="M1037.33 399.914C1037.33 400.36 1036.97 400.721 1036.53 400.721 1036.08 400.721 1035.72 400.36 1035.72 399.914 1035.72 399.468 1036.08 399.107 1036.53 399.107 1036.97 399.107 1037.33 399.468 1037.33 399.914Z" fill="#FFFFFF"></path>
    <path d="M1038.95 398.3C1038.95 398.746 1038.59 399.107 1038.14 399.107 1037.69 399.107 1037.33 398.746 1037.33 398.3 1037.33 397.854 1037.69 397.493 1038.14 397.493 1038.59 397.493 1038.95 397.854 1038.95 398.3Z" fill="#FFFFFF"></path>
    <path d="M1037.33 396.686C1037.33 397.132 1036.97 397.493 1036.53 397.493 1036.08 397.493 1035.72 397.132 1035.72 396.686 1035.72 396.24 1036.08 395.879 1036.53 395.879 1036.97 395.879 1037.33 396.24 1037.33 396.686Z" fill="#FFFFFF"></path>
    <path d="M1034.1 396.686C1034.1 397.132 1033.74 397.493 1033.3 397.493 1032.85 397.493 1032.49 397.132 1032.49 396.686 1032.49 396.24 1032.85 395.879 1033.3 395.879 1033.74 395.879 1034.1 396.24 1034.1 396.686Z" fill="#FFFFFF"></path>
    <path d="M1038.95 395.072C1038.95 395.518 1038.59 395.879 1038.14 395.879 1037.69 395.879 1037.33 395.518 1037.33 395.072 1037.33 394.626 1037.69 394.265 1038.14 394.265 1038.59 394.265 1038.95 394.626 1038.95 395.072Z" fill="#FFFFFF"></path>
    <path d="M1032.49 395.072C1032.49 395.518 1032.13 395.879 1031.68 395.879 1031.24 395.879 1030.88 395.518 1030.88 395.072 1030.88 394.626 1031.24 394.265 1031.68 394.265 1032.13 394.265 1032.49 394.626 1032.49 395.072Z" fill="#FFFFFF"></path>
    <path d="M1034.1 393.458C1034.1 393.904 1033.74 394.265 1033.3 394.265 1032.85 394.265 1032.49 393.904 1032.49 393.458 1032.49 393.012 1032.85 392.651 1033.3 392.651 1033.74 392.651 1034.1 393.012 1034.1 393.458Z" fill="#FFFFFF"></path>
    <path d="M1040.56 406.37C1040.56 406.816 1040.2 407.177 1039.75 407.177 1039.31 407.177 1038.95 406.816 1038.95 406.37 1038.95 405.924 1039.31 405.563 1039.75 405.563 1040.2 405.563 1040.56 405.924 1040.56 406.37Z" fill="#FFFFFF"></path>
    <path d="M1040.56 403.142C1040.56 403.588 1040.2 403.949 1039.75 403.949 1039.31 403.949 1038.95 403.588 1038.95 403.142 1038.95 402.696 1039.31 402.335 1039.75 402.335 1040.2 402.335 1040.56 402.696 1040.56 403.142Z" fill="#FFFFFF"></path>
    <path d="M1016.35 427.352C1016.35 427.798 1015.99 428.159 1015.54 428.159 1015.1 428.159 1014.74 427.798 1014.74 427.352 1014.74 426.906 1015.1 426.545 1015.54 426.545 1015.99 426.545 1016.35 426.906 1016.35 427.352Z" fill="#FFFFFF"></path>
    <path d="M1019.58 427.352C1019.58 427.798 1019.22 428.159 1018.77 428.159 1018.33 428.159 1017.97 427.798 1017.97 427.352 1017.97 426.906 1018.33 426.545 1018.77 426.545 1019.22 426.545 1019.58 426.906 1019.58 427.352Z" fill="#FFFFFF"></path>
    <path d="M1017.97 425.738C1017.97 426.184 1017.6 426.545 1017.16 426.545 1016.71 426.545 1016.35 426.184 1016.35 425.738 1016.35 425.292 1016.71 424.931 1017.16 424.931 1017.6 424.931 1017.97 425.292 1017.97 425.738Z" fill="#FFFFFF"></path>
    <path d="M1014.74 425.738C1014.74 426.184 1014.38 426.545 1013.93 426.545 1013.48 426.545 1013.12 426.184 1013.12 425.738 1013.12 425.292 1013.48 424.931 1013.93 424.931 1014.38 424.931 1014.74 425.292 1014.74 425.738Z" fill="#FFFFFF"></path>
    <path d="M1014.74 422.51C1014.74 422.956 1014.38 423.317 1013.93 423.317 1013.48 423.317 1013.12 422.956 1013.12 422.51 1013.12 422.064 1013.48 421.703 1013.93 421.703 1014.38 421.703 1014.74 422.064 1014.74 422.51Z" fill="#FFFFFF"></path>
    <path d="M1021.19 422.51C1021.19 422.956 1020.83 423.317 1020.39 423.317 1019.94 423.317 1019.58 422.956 1019.58 422.51 1019.58 422.064 1019.94 421.703 1020.39 421.703 1020.83 421.703 1021.19 422.064 1021.19 422.51Z" fill="#FFFFFF"></path>
    <path d="M1019.58 420.896C1019.58 421.342 1019.22 421.703 1018.77 421.703 1018.33 421.703 1017.97 421.342 1017.97 420.896 1017.97 420.45 1018.33 420.089 1018.77 420.089 1019.22 420.089 1019.58 420.45 1019.58 420.896Z" fill="#FFFFFF"></path>
    <path d="M1017.97 419.282C1017.97 419.728 1017.6 420.089 1017.16 420.089 1016.71 420.089 1016.35 419.728 1016.35 419.282 1016.35 418.836 1016.71 418.475 1017.16 418.475 1017.6 418.475 1017.97 418.836 1017.97 419.282Z" fill="#FFFFFF"></path>
    <path d="M1014.74 419.282C1014.74 419.728 1014.38 420.089 1013.93 420.089 1013.48 420.089 1013.12 419.728 1013.12 419.282 1013.12 418.836 1013.48 418.475 1013.93 418.475 1014.38 418.475 1014.74 418.836 1014.74 419.282Z" fill="#FFFFFF"></path>
    <path d="M1016.35 417.668C1016.35 418.114 1015.99 418.475 1015.54 418.475 1015.1 418.475 1014.74 418.114 1014.74 417.668 1014.74 417.222 1015.1 416.861 1015.54 416.861 1015.99 416.861 1016.35 417.222 1016.35 417.668Z" fill="#FFFFFF"></path>
    <path d="M1021.19 416.054C1021.19 416.5 1020.83 416.861 1020.39 416.861 1019.94 416.861 1019.58 416.5 1019.58 416.054 1019.58 415.608 1019.94 415.247 1020.39 415.247 1020.83 415.247 1021.19 415.608 1021.19 416.054Z" fill="#FFFFFF"></path>
    <path d="M1016.35 414.44C1016.35 414.886 1015.99 415.247 1015.54 415.247 1015.1 415.247 1014.74 414.886 1014.74 414.44 1014.74 413.994 1015.1 413.633 1015.54 413.633 1015.99 413.633 1016.35 413.994 1016.35 414.44Z" fill="#FFFFFF"></path>
    <path d="M1019.58 414.44C1019.58 414.886 1019.22 415.247 1018.77 415.247 1018.33 415.247 1017.97 414.886 1017.97 414.44 1017.97 413.994 1018.33 413.633 1018.77 413.633 1019.22 413.633 1019.58 413.994 1019.58 414.44Z" fill="#FFFFFF"></path>
    <path d="M1019.58 411.212C1019.58 411.658 1019.22 412.019 1018.77 412.019 1018.33 412.019 1017.97 411.658 1017.97 411.212 1017.97 410.766 1018.33 410.405 1018.77 410.405 1019.22 410.405 1019.58 410.766 1019.58 411.212Z" fill="#FFFFFF"></path>
    <path d="M1017.97 409.598C1017.97 410.044 1017.6 410.405 1017.16 410.405 1016.71 410.405 1016.35 410.044 1016.35 409.598 1016.35 409.152 1016.71 408.791 1017.16 408.791 1017.6 408.791 1017.97 409.152 1017.97 409.598Z" fill="#FFFFFF"></path>
    <path d="M1014.74 409.598C1014.74 410.044 1014.38 410.405 1013.93 410.405 1013.48 410.405 1013.12 410.044 1013.12 409.598 1013.12 409.152 1013.48 408.791 1013.93 408.791 1014.38 408.791 1014.74 409.152 1014.74 409.598Z" fill="#FFFFFF"></path>
    <path d="M1016.35 407.984C1016.35 408.43 1015.99 408.791 1015.54 408.791 1015.1 408.791 1014.74 408.43 1014.74 407.984 1014.74 407.538 1015.1 407.177 1015.54 407.177 1015.99 407.177 1016.35 407.538 1016.35 407.984Z" fill="#FFFFFF"></path>
    <path d="M1017.97 406.37C1017.97 406.816 1017.6 407.177 1017.16 407.177 1016.71 407.177 1016.35 406.816 1016.35 406.37 1016.35 405.924 1016.71 405.563 1017.16 405.563 1017.6 405.563 1017.97 405.924 1017.97 406.37Z" fill="#FFFFFF"></path>
    <path d="M1014.74 406.37C1014.74 406.816 1014.38 407.177 1013.93 407.177 1013.48 407.177 1013.12 406.816 1013.12 406.37 1013.12 405.924 1013.48 405.563 1013.93 405.563 1014.38 405.563 1014.74 405.924 1014.74 406.37Z" fill="#FFFFFF"></path>
    <path d="M1021.19 406.37C1021.19 406.816 1020.83 407.177 1020.39 407.177 1019.94 407.177 1019.58 406.816 1019.58 406.37 1019.58 405.924 1019.94 405.563 1020.39 405.563 1020.83 405.563 1021.19 405.924 1021.19 406.37Z" fill="#FFFFFF"></path>
    <path d="M1019.58 404.756C1019.58 405.202 1019.22 405.563 1018.77 405.563 1018.33 405.563 1017.97 405.202 1017.97 404.756 1017.97 404.31 1018.33 403.949 1018.77 403.949 1019.22 403.949 1019.58 404.31 1019.58 404.756Z" fill="#FFFFFF"></path>
    <path d="M1017.97 403.142C1017.97 403.588 1017.6 403.949 1017.16 403.949 1016.71 403.949 1016.35 403.588 1016.35 403.142 1016.35 402.696 1016.71 402.335 1017.16 402.335 1017.6 402.335 1017.97 402.696 1017.97 403.142Z" fill="#FFFFFF"></path>
    <path d="M1016.35 401.528C1016.35 401.974 1015.99 402.335 1015.54 402.335 1015.1 402.335 1014.74 401.974 1014.74 401.528 1014.74 401.082 1015.1 400.721 1015.54 400.721 1015.99 400.721 1016.35 401.082 1016.35 401.528Z" fill="#FFFFFF"></path>
    <path d="M1019.58 401.528C1019.58 401.974 1019.22 402.335 1018.77 402.335 1018.33 402.335 1017.97 401.974 1017.97 401.528 1017.97 401.082 1018.33 400.721 1018.77 400.721 1019.22 400.721 1019.58 401.082 1019.58 401.528Z" fill="#FFFFFF"></path>
    <path d="M1016.35 398.3C1016.35 398.746 1015.99 399.107 1015.54 399.107 1015.1 399.107 1014.74 398.746 1014.74 398.3 1014.74 397.854 1015.1 397.493 1015.54 397.493 1015.99 397.493 1016.35 397.854 1016.35 398.3Z" fill="#FFFFFF"></path>
    <path d="M1019.58 398.3C1019.58 398.746 1019.22 399.107 1018.77 399.107 1018.33 399.107 1017.97 398.746 1017.97 398.3 1017.97 397.854 1018.33 397.493 1018.77 397.493 1019.22 397.493 1019.58 397.854 1019.58 398.3Z" fill="#FFFFFF"></path>
    <path d="M1014.74 396.686C1014.74 397.132 1014.38 397.493 1013.93 397.493 1013.48 397.493 1013.12 397.132 1013.12 396.686 1013.12 396.24 1013.48 395.879 1013.93 395.879 1014.38 395.879 1014.74 396.24 1014.74 396.686Z" fill="#FFFFFF"></path>
    <path d="M1016.35 395.072C1016.35 395.518 1015.99 395.879 1015.54 395.879 1015.1 395.879 1014.74 395.518 1014.74 395.072 1014.74 394.626 1015.1 394.265 1015.54 394.265 1015.99 394.265 1016.35 394.626 1016.35 395.072Z" fill="#FFFFFF"></path>
    <path d="M1019.58 395.072C1019.58 395.518 1019.22 395.879 1018.77 395.879 1018.33 395.879 1017.97 395.518 1017.97 395.072 1017.97 394.626 1018.33 394.265 1018.77 394.265 1019.22 394.265 1019.58 394.626 1019.58 395.072Z" fill="#FFFFFF"></path>
    <path d="M1016.35 391.844C1016.35 392.29 1015.99 392.651 1015.54 392.651 1015.1 392.651 1014.74 392.29 1014.74 391.844 1014.74 391.398 1015.1 391.037 1015.54 391.037 1015.99 391.037 1016.35 391.398 1016.35 391.844Z" fill="#FFFFFF"></path>
    <path d="M1014.74 390.23C1014.74 390.676 1014.38 391.037 1013.93 391.037 1013.48 391.037 1013.12 390.676 1013.12 390.23 1013.12 389.784 1013.48 389.423 1013.93 389.423 1014.38 389.423 1014.74 389.784 1014.74 390.23Z" fill="#FFFFFF"></path>
    <path d="M1021.19 390.23C1021.19 390.676 1020.83 391.037 1020.39 391.037 1019.94 391.037 1019.58 390.676 1019.58 390.23 1019.58 389.784 1019.94 389.423 1020.39 389.423 1020.83 389.423 1021.19 389.784 1021.19 390.23Z" fill="#FFFFFF"></path>
    <path d="M1013.12 424.124C1013.12 424.57 1012.76 424.931 1012.32 424.931 1011.87 424.931 1011.51 424.57 1011.51 424.124 1011.51 423.678 1011.87 423.317 1012.32 423.317 1012.76 423.317 1013.12 423.678 1013.12 424.124Z" fill="#FFFFFF"></path>
    <path d="M1009.9 420.896C1009.9 421.342 1009.53 421.703 1009.09 421.703 1008.64 421.703 1008.28 421.342 1008.28 420.896 1008.28 420.45 1008.64 420.089 1009.09 420.089 1009.53 420.089 1009.9 420.45 1009.9 420.896Z" fill="#FFFFFF"></path>
    <path d="M1011.51 419.282C1011.51 419.728 1011.15 420.089 1010.7 420.089 1010.26 420.089 1009.9 419.728 1009.9 419.282 1009.9 418.836 1010.26 418.475 1010.7 418.475 1011.15 418.475 1011.51 418.836 1011.51 419.282Z" fill="#FFFFFF"></path>
    <path d="M1009.9 417.668C1009.9 418.114 1009.53 418.475 1009.09 418.475 1008.64 418.475 1008.28 418.114 1008.28 417.668 1008.28 417.222 1008.64 416.861 1009.09 416.861 1009.53 416.861 1009.9 417.222 1009.9 417.668Z" fill="#FFFFFF"></path>
    <path d="M1008.28 416.054C1008.28 416.5 1007.92 416.861 1007.47 416.861 1007.03 416.861 1006.67 416.5 1006.67 416.054 1006.67 415.608 1007.03 415.247 1007.47 415.247 1007.92 415.247 1008.28 415.608 1008.28 416.054Z" fill="#FFFFFF"></path>
    <path d="M1009.9 414.44C1009.9 414.886 1009.53 415.247 1009.09 415.247 1008.64 415.247 1008.28 414.886 1008.28 414.44 1008.28 413.994 1008.64 413.633 1009.09 413.633 1009.53 413.633 1009.9 413.994 1009.9 414.44Z" fill="#FFFFFF"></path>
    <path d="M1013.12 414.44C1013.12 414.886 1012.76 415.247 1012.32 415.247 1011.87 415.247 1011.51 414.886 1011.51 414.44 1011.51 413.994 1011.87 413.633 1012.32 413.633 1012.76 413.633 1013.12 413.994 1013.12 414.44Z" fill="#FFFFFF"></path>
    <path d="M1009.9 411.212C1009.9 411.658 1009.53 412.019 1009.09 412.019 1008.64 412.019 1008.28 411.658 1008.28 411.212 1008.28 410.766 1008.64 410.405 1009.09 410.405 1009.53 410.405 1009.9 410.766 1009.9 411.212Z" fill="#FFFFFF"></path>
    <path d="M1006.67 411.212C1006.67 411.658 1006.31 412.019 1005.86 412.019 1005.41 412.019 1005.05 411.658 1005.05 411.212 1005.05 410.766 1005.41 410.405 1005.86 410.405 1006.31 410.405 1006.67 410.766 1006.67 411.212Z" fill="#FFFFFF"></path>
    <path d="M1013.12 411.212C1013.12 411.658 1012.76 412.019 1012.32 412.019 1011.87 412.019 1011.51 411.658 1011.51 411.212 1011.51 410.766 1011.87 410.405 1012.32 410.405 1012.76 410.405 1013.12 410.766 1013.12 411.212Z" fill="#FFFFFF"></path>
    <path d="M1009.9 407.984C1009.9 408.43 1009.53 408.791 1009.09 408.791 1008.64 408.791 1008.28 408.43 1008.28 407.984 1008.28 407.538 1008.64 407.177 1009.09 407.177 1009.53 407.177 1009.9 407.538 1009.9 407.984Z" fill="#FFFFFF"></path>
    <path d="M1011.51 406.37C1011.51 406.816 1011.15 407.177 1010.7 407.177 1010.26 407.177 1009.9 406.816 1009.9 406.37 1009.9 405.924 1010.26 405.563 1010.7 405.563 1011.15 405.563 1011.51 405.924 1011.51 406.37Z" fill="#FFFFFF"></path>
    <path d="M1009.9 404.756C1009.9 405.202 1009.53 405.563 1009.09 405.563 1008.64 405.563 1008.28 405.202 1008.28 404.756 1008.28 404.31 1008.64 403.949 1009.09 403.949 1009.53 403.949 1009.9 404.31 1009.9 404.756Z" fill="#FFFFFF"></path>
    <path d="M1008.28 403.142C1008.28 403.588 1007.92 403.949 1007.47 403.949 1007.03 403.949 1006.67 403.588 1006.67 403.142 1006.67 402.696 1007.03 402.335 1007.47 402.335 1007.92 402.335 1008.28 402.696 1008.28 403.142Z" fill="#FFFFFF"></path>
    <path d="M1011.51 403.142C1011.51 403.588 1011.15 403.949 1010.7 403.949 1010.26 403.949 1009.9 403.588 1009.9 403.142 1009.9 402.696 1010.26 402.335 1010.7 402.335 1011.15 402.335 1011.51 402.696 1011.51 403.142Z" fill="#FFFFFF"></path>
    <path d="M1009.9 401.528C1009.9 401.974 1009.53 402.335 1009.09 402.335 1008.64 402.335 1008.28 401.974 1008.28 401.528 1008.28 401.082 1008.64 400.721 1009.09 400.721 1009.53 400.721 1009.9 401.082 1009.9 401.528Z" fill="#FFFFFF"></path>
    <path d="M1013.12 401.528C1013.12 401.974 1012.76 402.335 1012.32 402.335 1011.87 402.335 1011.51 401.974 1011.51 401.528 1011.51 401.082 1011.87 400.721 1012.32 400.721 1012.76 400.721 1013.12 401.082 1013.12 401.528Z" fill="#FFFFFF"></path>
    <path d="M1008.28 399.914C1008.28 400.36 1007.92 400.721 1007.47 400.721 1007.03 400.721 1006.67 400.36 1006.67 399.914 1006.67 399.468 1007.03 399.107 1007.47 399.107 1007.92 399.107 1008.28 399.468 1008.28 399.914Z" fill="#FFFFFF"></path>
    <path d="M1006.67 398.3C1006.67 398.746 1006.31 399.107 1005.86 399.107 1005.41 399.107 1005.05 398.746 1005.05 398.3 1005.05 397.854 1005.41 397.493 1005.86 397.493 1006.31 397.493 1006.67 397.854 1006.67 398.3Z" fill="#FFFFFF"></path>
    <path d="M1008.28 396.686C1008.28 397.132 1007.92 397.493 1007.47 397.493 1007.03 397.493 1006.67 397.132 1006.67 396.686 1006.67 396.24 1007.03 395.879 1007.47 395.879 1007.92 395.879 1008.28 396.24 1008.28 396.686Z" fill="#FFFFFF"></path>
    <path d="M1011.51 396.686C1011.51 397.132 1011.15 397.493 1010.7 397.493 1010.26 397.493 1009.9 397.132 1009.9 396.686 1009.9 396.24 1010.26 395.879 1010.7 395.879 1011.15 395.879 1011.51 396.24 1011.51 396.686Z" fill="#FFFFFF"></path>
    <path d="M1006.67 395.072C1006.67 395.518 1006.31 395.879 1005.86 395.879 1005.41 395.879 1005.05 395.518 1005.05 395.072 1005.05 394.626 1005.41 394.265 1005.86 394.265 1006.31 394.265 1006.67 394.626 1006.67 395.072Z" fill="#FFFFFF"></path>
    <path d="M1013.12 395.072C1013.12 395.518 1012.76 395.879 1012.32 395.879 1011.87 395.879 1011.51 395.518 1011.51 395.072 1011.51 394.626 1011.87 394.265 1012.32 394.265 1012.76 394.265 1013.12 394.626 1013.12 395.072Z" fill="#FFFFFF"></path>
    <path d="M1011.51 393.458C1011.51 393.904 1011.15 394.265 1010.7 394.265 1010.26 394.265 1009.9 393.904 1009.9 393.458 1009.9 393.012 1010.26 392.651 1010.7 392.651 1011.15 392.651 1011.51 393.012 1011.51 393.458Z" fill="#FFFFFF"></path>
    <path d="M1005.05 406.37C1005.05 406.816 1004.69 407.177 1004.25 407.177 1003.8 407.177 1003.44 406.816 1003.44 406.37 1003.44 405.924 1003.8 405.563 1004.25 405.563 1004.69 405.563 1005.05 405.924 1005.05 406.37Z" fill="#FFFFFF"></path>
    <path d="M1005.05 403.142C1005.05 403.588 1004.69 403.949 1004.25 403.949 1003.8 403.949 1003.44 403.588 1003.44 403.142 1003.44 402.696 1003.8 402.335 1004.25 402.335 1004.69 402.335 1005.05 402.696 1005.05 403.142Z" fill="#FFFFFF"></path>
    <path d="M1042.63 403.306C1042 402.335 1041.65 400.23 1041.73 398.95 1041.91 395.958 1040.32 392.988 1037.87 391.727 1037.39 391.483 1036.97 391.361 1036.59 391.253 1035.94 391.066 1035.68 390.989 1035.43 390.481 1034.14 387.805 1032.72 387.429 1030.02 387.605 1029.77 387.61 1029.43 387.234 1029.08 386.863 1028.48 386.223 1027.68 385.368 1026.41 385.223L1026.01 385.182C1024.65 385.182 1023.34 385.587 1022.41 386.291 1022.14 386.49 1021.82 386.491 1021.59 386.296 1020.49 385.325 1018.82 384.606 1017.67 385.24 1016.41 385.488 1015.61 386.286 1015.01 386.875 1014.54 387.34 1014.24 387.636 1013.98 387.604 1011.28 387.431 1009.85 387.805 1008.57 390.48 1008.32 390.988 1008.05 391.065 1007.41 391.252 1007.03 391.36 1006.61 391.483 1006.13 391.726 1003.68 392.988 1002.09 395.957 1002.27 398.949 1002.34 400.23 1002 402.334 1001.37 403.305 999.832 405.701 999.832 409.046 1001.37 411.441 1001.61 411.811 1001.96 412.241 1002.36 412.74 1003.08 413.629 1004.29 415.116 1004.25 415.797 1004.06 418.812 1005.9 422.286 1008.35 423.541 1008.79 423.767 1008.86 423.996 1009.03 424.687 1009.12 425.07 1009.23 425.545 1009.48 426.057 1010.15 427.437 1011.19 427.833 1011.95 428.123 1012.7 428.41 1013.01 428.529 1013.13 429.357 1013.4 431.28 1014.42 432.577 1015.95 432.915 1016.21 432.971 1016.47 432.999 1016.74 432.999 1018.46 432.999 1020.34 431.857 1021.52 430.013 1021.67 429.791 1021.9 429.766 1022 429.766 1022.09 429.766 1022.33 429.791 1022.47 430.013 1023.85 432.144 1026.14 433.332 1028.05 432.916 1029.58 432.578 1030.6 431.281 1030.87 429.358 1030.98 428.53 1031.3 428.411 1032.05 428.124 1032.81 427.834 1033.85 427.438 1034.52 426.057 1034.76 425.546 1034.88 425.07 1034.97 424.688 1035.14 423.997 1035.21 423.768 1035.65 423.542 1038.09 422.287 1039.93 418.814 1039.75 415.798 1039.71 415.117 1040.92 413.629 1041.64 412.74 1042.04 412.242 1042.39 411.812 1042.63 411.442 1044.17 409.047 1044.17 405.702 1042.63 403.306ZM1042.15 407.836C1042.07 407.463 1041.76 407.177 1041.37 407.177 1040.92 407.177 1040.56 407.539 1040.56 407.984 1040.56 408.429 1040.92 408.791 1041.37 408.791 1041.69 408.791 1041.97 408.596 1042.1 408.317 1041.99 409.057 1041.74 409.769 1041.36 410.407 1040.92 410.414 1040.56 410.771 1040.56 411.212 1040.56 411.295 1040.59 411.37 1040.61 411.445 1040.53 411.536 1040.46 411.629 1040.38 411.724 1040.28 411.845 1040.18 411.969 1040.08 412.093 1039.98 412.047 1039.87 412.018 1039.75 412.018 1039.31 412.018 1038.95 412.38 1038.95 412.825 1038.95 413.022 1039.03 413.196 1039.14 413.337 1039 413.539 1038.88 413.739 1038.76 413.94 1038.61 413.757 1038.39 413.632 1038.14 413.632 1037.69 413.632 1037.33 413.994 1037.33 414.439 1037.33 414.885 1037.69 415.246 1038.14 415.246 1038.17 415.246 1038.19 415.233 1038.21 415.232 1038.16 415.458 1038.13 415.68 1038.14 415.896 1038.16 416.211 1038.15 416.537 1038.11 416.867 1037.68 416.884 1037.33 417.233 1037.33 417.667 1037.33 417.973 1037.51 418.229 1037.76 418.366 1037.63 418.757 1037.48 419.141 1037.29 419.507 1037.31 419.434 1037.33 419.362 1037.33 419.281 1037.33 418.836 1036.97 418.474 1036.53 418.474 1036.08 418.474 1035.72 418.836 1035.72 419.281 1035.72 419.727 1036.08 420.088 1036.53 420.088 1036.74 420.088 1036.93 420.002 1037.08 419.866 1036.5 420.85 1035.75 421.678 1034.92 422.106 1034.53 422.304 1034.25 422.54 1034.05 422.792 1034.08 422.703 1034.11 422.609 1034.11 422.509 1034.11 422.064 1033.74 421.702 1033.3 421.702 1032.85 421.702 1032.49 422.064 1032.49 422.509 1032.49 422.955 1032.85 423.316 1033.3 423.316 1033.5 423.316 1033.68 423.234 1033.83 423.109 1033.6 423.5 1033.5 423.917 1033.4 424.309 1033.35 424.517 1033.29 424.731 1033.22 424.946 1032.81 424.987 1032.49 425.319 1032.49 425.738 1032.49 425.849 1032.51 425.956 1032.55 426.053 1032.29 426.286 1031.98 426.421 1031.64 426.555 1031.47 426.565 1031.32 426.629 1031.2 426.726 1030.52 426.998 1029.74 427.419 1029.4 428.543 1029.32 428.668 1029.26 428.807 1029.26 428.965 1029.26 429.003 1029.28 429.035 1029.28 429.072 1029.28 429.095 1029.27 429.113 1029.27 429.136 1029.23 429.426 1029.16 429.739 1029.05 430.038 1028.9 429.876 1028.69 429.771 1028.46 429.771 1028.01 429.771 1027.65 430.133 1027.65 430.578 1027.65 430.855 1027.8 431.087 1028.01 431.233 1027.91 431.275 1027.81 431.314 1027.7 431.338 1027.14 431.462 1026.51 431.332 1025.88 431.023 1025.97 430.894 1026.04 430.746 1026.04 430.578 1026.04 430.133 1025.67 429.771 1025.23 429.771 1024.97 429.771 1024.75 429.9 1024.6 430.088 1024.32 429.806 1024.06 429.49 1023.83 429.136 1023.43 428.52 1022.75 428.151 1022 428.151 1021.63 428.151 1021.28 428.242 1020.97 428.407 1020.82 428.253 1020.62 428.156 1020.39 428.156 1019.94 428.156 1019.58 428.518 1019.58 428.963 1019.58 429.205 1019.69 429.415 1019.86 429.562 1018.86 430.849 1017.42 431.585 1016.3 431.338 1016.19 431.313 1016.09 431.274 1015.99 431.232 1016.2 431.087 1016.35 430.854 1016.35 430.577 1016.35 430.132 1015.99 429.77 1015.54 429.77 1015.31 429.77 1015.1 429.875 1014.95 430.037 1014.84 429.738 1014.77 429.425 1014.73 429.135 1014.73 429.111 1014.72 429.093 1014.72 429.071 1014.72 429.034 1014.74 429.002 1014.74 428.964 1014.74 428.806 1014.68 428.666 1014.6 428.542 1014.26 427.417 1013.48 426.997 1012.81 426.725 1012.68 426.627 1012.53 426.563 1012.36 426.554 1012.02 426.42 1011.71 426.285 1011.45 426.052 1011.49 425.955 1011.51 425.849 1011.51 425.737 1011.51 425.319 1011.19 424.986 1010.78 424.945 1010.71 424.73 1010.65 424.517 1010.6 424.308 1010.5 423.917 1010.4 423.5 1010.18 423.108 1010.32 423.233 1010.5 423.315 1010.7 423.315 1011.15 423.315 1011.51 422.954 1011.51 422.508 1011.51 422.063 1011.15 421.701 1010.7 421.701 1010.26 421.701 1009.9 422.063 1009.9 422.508 1009.9 422.608 1009.92 422.703 1009.95 422.791 1009.75 422.538 1009.47 422.303 1009.09 422.105 1008.25 421.677 1007.5 420.85 1006.93 419.865 1007.07 420.001 1007.26 420.087 1007.48 420.087 1007.92 420.087 1008.28 419.726 1008.28 419.28 1008.28 418.835 1007.92 418.473 1007.48 418.473 1007.03 418.473 1006.67 418.835 1006.67 419.28 1006.67 419.36 1006.69 419.433 1006.71 419.506 1006.53 419.141 1006.37 418.756 1006.24 418.365 1006.49 418.228 1006.67 417.971 1006.67 417.666 1006.67 417.232 1006.32 416.884 1005.89 416.866 1005.86 416.537 1005.84 416.21 1005.86 415.895 1005.87 415.679 1005.84 415.457 1005.79 415.231 1005.81 415.233 1005.84 415.245 1005.86 415.245 1006.31 415.245 1006.67 414.884 1006.67 414.438 1006.67 413.993 1006.31 413.631 1005.86 413.631 1005.61 413.631 1005.39 413.756 1005.24 413.94 1005.12 413.739 1005 413.537 1004.86 413.336 1004.98 413.196 1005.05 413.022 1005.05 412.824 1005.05 412.379 1004.69 412.017 1004.25 412.017 1004.13 412.017 1004.02 412.046 1003.92 412.092 1003.82 411.968 1003.72 411.844 1003.62 411.723 1003.54 411.628 1003.47 411.536 1003.39 411.444 1003.42 411.369 1003.44 411.293 1003.44 411.211 1003.44 410.77 1003.09 410.413 1002.65 410.407 1002.27 409.768 1002.02 409.056 1001.9 408.316 1002.03 408.595 1002.31 408.79 1002.63 408.79 1003.08 408.79 1003.44 408.429 1003.44 407.983 1003.44 407.538 1003.08 407.176 1002.63 407.176 1002.24 407.176 1001.93 407.463 1001.86 407.835 1001.8 407.008 1001.9 406.174 1002.16 405.394 1002.3 405.493 1002.45 405.562 1002.63 405.562 1003.08 405.562 1003.44 405.201 1003.44 404.755 1003.44 404.382 1003.18 404.081 1002.84 403.989 1003.35 403.098 1003.68 401.802 1003.82 400.578 1003.94 400.661 1004.09 400.721 1004.25 400.721 1004.69 400.721 1005.06 400.36 1005.06 399.914 1005.06 399.469 1004.69 399.107 1004.25 399.107 1004.12 399.107 1004 399.146 1003.89 399.201 1003.89 399.084 1003.89 398.961 1003.88 398.851 1003.85 398.378 1003.9 397.904 1003.98 397.437 1004.06 397.469 1004.15 397.492 1004.25 397.492 1004.69 397.492 1005.06 397.131 1005.06 396.685 1005.06 396.305 1004.79 396.001 1004.43 395.915 1004.93 394.785 1005.72 393.828 1006.71 393.265 1006.69 393.328 1006.67 393.389 1006.67 393.457 1006.67 393.903 1007.03 394.264 1007.48 394.264 1007.92 394.264 1008.28 393.903 1008.28 393.457 1008.28 393.172 1008.13 392.932 1007.9 392.789 1008.15 392.716 1008.42 392.636 1008.68 392.52 1008.8 392.595 1008.94 392.65 1009.09 392.65 1009.54 392.65 1009.9 392.289 1009.9 391.843 1009.9 391.729 1009.87 391.621 1009.83 391.522 1009.9 391.416 1009.96 391.306 1010.02 391.179 1010.08 391.056 1010.14 390.952 1010.2 390.843 1010.34 390.958 1010.51 391.036 1010.71 391.036 1011.15 391.036 1011.51 390.675 1011.51 390.229 1011.51 389.961 1011.37 389.734 1011.17 389.587 1011.38 389.438 1011.61 389.338 1011.88 389.274 1012.01 389.36 1012.15 389.422 1012.32 389.422 1012.55 389.422 1012.75 389.326 1012.9 389.175 1013.19 389.175 1013.51 389.19 1013.88 389.214 1014.25 389.237 1014.58 389.16 1014.87 389.026 1015.01 389.259 1015.25 389.422 1015.55 389.422 1015.99 389.422 1016.35 389.061 1016.35 388.615 1016.35 388.395 1016.26 388.197 1016.12 388.051 1016.13 388.041 1016.14 388.03 1016.15 388.02 1016.31 387.87 1016.46 387.724 1016.61 387.585 1016.75 387.721 1016.95 387.808 1017.16 387.808 1017.61 387.808 1017.97 387.446 1017.97 387.001 1017.97 386.946 1017.95 386.898 1017.94 386.847 1017.99 386.836 1018.03 386.812 1018.09 386.804L1018.35 386.755 1018.48 386.637C1018.66 386.554 1019.1 386.636 1019.61 386.884 1019.6 386.925 1019.58 386.961 1019.58 387.002 1019.58 387.448 1019.94 387.809 1020.39 387.809 1020.53 387.809 1020.66 387.76 1020.78 387.692 1021.51 388.17 1022.45 388.169 1023.21 387.686 1023.33 387.758 1023.46 387.809 1023.61 387.809 1024.04 387.809 1024.38 387.473 1024.41 387.051 1024.8 386.921 1025.22 386.837 1025.66 386.808L1026.03 386.815C1026.05 386.815 1026.06 386.821 1026.07 386.821 1026.06 386.88 1026.03 386.938 1026.03 387.002 1026.03 387.448 1026.4 387.809 1026.84 387.809 1027.09 387.809 1027.31 387.688 1027.46 387.509 1027.6 387.645 1027.74 387.795 1027.9 387.964 1027.91 387.979 1027.93 387.993 1027.94 388.008 1027.77 388.155 1027.65 388.369 1027.65 388.616 1027.65 389.062 1028.01 389.423 1028.46 389.423 1028.76 389.423 1029.01 389.25 1029.15 389.006 1029.44 389.149 1029.76 389.232 1030.12 389.215 1030.5 389.192 1030.81 389.182 1031.11 389.183 1031.26 389.331 1031.46 389.423 1031.68 389.423 1031.85 389.423 1031.99 389.361 1032.12 389.275 1032.39 389.339 1032.62 389.447 1032.82 389.594 1032.63 389.741 1032.49 389.965 1032.49 390.23 1032.49 390.676 1032.85 391.037 1033.3 391.037 1033.49 391.037 1033.66 390.96 1033.8 390.845 1033.86 390.956 1033.92 391.055 1033.98 391.18 1034.04 391.306 1034.11 391.417 1034.17 391.523 1034.13 391.621 1034.1 391.73 1034.1 391.844 1034.1 392.29 1034.47 392.651 1034.91 392.651 1035.07 392.651 1035.2 392.596 1035.33 392.52 1035.58 392.637 1035.85 392.716 1036.1 392.79 1035.88 392.934 1035.72 393.172 1035.72 393.458 1035.72 393.904 1036.08 394.265 1036.53 394.265 1036.97 394.265 1037.33 393.904 1037.33 393.458 1037.33 393.39 1037.31 393.329 1037.29 393.266 1038.28 393.829 1039.07 394.786 1039.57 395.916 1039.21 396.002 1038.95 396.306 1038.95 396.686 1038.95 397.132 1039.31 397.493 1039.75 397.493 1039.85 397.493 1039.94 397.469 1040.03 397.438 1040.11 397.905 1040.15 398.378 1040.12 398.852 1040.11 398.962 1040.12 399.084 1040.11 399.201 1040 399.146 1039.88 399.108 1039.75 399.108 1039.31 399.108 1038.95 399.469 1038.95 399.915 1038.95 400.36 1039.31 400.722 1039.75 400.722 1039.92 400.722 1040.06 400.662 1040.19 400.579 1040.32 401.803 1040.66 403.098 1041.17 403.99 1040.82 404.082 1040.56 404.382 1040.56 404.756 1040.56 405.201 1040.92 405.563 1041.37 405.563 1041.55 405.563 1041.7 405.494 1041.84 405.395 1042.1 406.175 1042.21 407.009 1042.15 407.836Z" fill="#FFFFFF"></path>
  </g>
</svg>
