<?xml version="1.0" encoding="UTF-8"?>
<svg xmlns="http://www.w3.org/2000/svg" xmlns:xlink="http://www.w3.org/1999/xlink" width="48" height="48" xml:space="preserve" overflow="hidden">
  <g transform="translate(-277 -116)">
    <path d="M324.87 117.431C321.925 117.431 319.81 118.444 319.532 121.046L319.353 127.368C317.06 124.663 313.472 122.325 309.905 121.046 308.576 120.568 305.368 119.744 305.368 121.461L305.368 132.348C305.368 133.427 304.778 134.48 303.691 134.48L281.975 134.48C280.58 134.48 279.942 136.027 279.942 137.99 279.942 142.087 282.19 145.76 289.802 147.426L293.965 154.231 290.372 154.231C289.446 152.534 287.667 151.368 285.6 151.368 282.593 151.368 279.824 153.813 279.824 156.825 279.824 159.841 282.591 162.582 285.6 162.582 288.596 162.582 291.022 159.872 291.053 156.879L308.121 156.879C308.127 159.934 310.606 162.588 313.661 162.588 316.716 162.588 319.353 159.926 319.353 156.865 319.353 153.807 316.716 151.334 313.661 151.334 311.56 151.334 309.756 152.511 308.816 154.231L305.368 154.231 309.51 147.446C318.695 145.359 322.089 139.992 322.089 134.144 322.089 133.754 321.894 121.882 321.894 121.882 321.894 120.496 323.031 120.169 324.87 120.169 324.87 119.313 324.87 117.431 324.87 117.431ZM297.369 154.236 292.332 147.889C294.596 148.208 297.233 148.38 300.314 148.38 302.782 148.38 304.973 148.208 306.963 147.917L301.898 154.236 297.369 154.236Z" fill="#FFFFFF" fill-rule="evenodd"></path>
  </g>
</svg>
