<?xml version="1.0" encoding="UTF-8"?>
<svg xmlns="http://www.w3.org/2000/svg" xmlns:xlink="http://www.w3.org/1999/xlink" width="48" height="48" xml:space="preserve" overflow="hidden">
  <defs>
    <clipPath id="clip0">
      <rect x="564" y="209" width="48" height="48"></rect>
    </clipPath>
  </defs>
  <g clip-path="url(#clip0)" transform="translate(-564 -209)">
    <path d="M574.364 247.61C573.873 248.155 573.507 248.782 573.302 249.417 573.158 249.863 573.089 250.304 573.089 250.717 573.089 250.969 573.114 251.21 573.168 251.437 573.21 251.605 573.265 251.766 573.34 251.914 573.396 252.027 573.463 252.134 573.542 252.231 573.661 252.374 573.807 252.499 573.981 252.585 574.154 252.673 574.354 252.72 574.556 252.718L574.556 251.803C574.513 251.803 574.481 251.797 574.45 251.788 574.396 251.774 574.352 251.749 574.302 251.705 574.267 251.671 574.229 251.627 574.194 251.567 574.141 251.48 574.091 251.36 574.058 251.217 574.024 251.072 574.005 250.903 574.005 250.717 574.005 250.408 574.059 250.057 574.173 249.696 574.28 249.365 574.45 249.022 574.673 248.697 575.005 248.208 575.46 247.761 575.984 247.442 576.245 247.282 576.526 247.153 576.817 247.065 577.11 246.977 577.417 246.931 577.733 246.931 578.155 246.931 578.559 247.016 578.937 247.168 579.503 247.393 580.014 247.773 580.422 248.225 580.83 248.677 581.133 249.201 581.291 249.696 581.407 250.057 581.461 250.408 581.461 250.717 581.461 250.906 581.441 251.078 581.405 251.223 581.38 251.331 581.345 251.428 581.307 251.504 581.278 251.562 581.247 251.609 581.215 251.649 581.168 251.706 581.121 251.743 581.076 251.766 581.029 251.788 580.981 251.801 580.91 251.803L580.91 252.718C581.03 252.72 581.149 252.702 581.262 252.671 581.46 252.617 581.637 252.515 581.782 252.381 581.89 252.282 581.981 252.168 582.056 252.043 582.17 251.856 582.249 251.648 582.3 251.425 582.352 251.202 582.377 250.965 582.377 250.717 582.377 250.304 582.308 249.862 582.164 249.417 582.028 248.993 581.82 248.574 581.55 248.18 581.146 247.59 580.607 247.054 579.96 246.658 579.636 246.462 579.286 246.301 578.912 246.189 578.539 246.075 578.143 246.014 577.733 246.014 577.187 246.014 576.665 246.125 576.189 246.317 575.473 246.604 574.854 247.067 574.364 247.61Z" fill="#FFFFFF"></path>
    <path d="M579.524 251.385C579.375 251.504 579.287 251.683 579.287 251.874L579.287 252.614C579.287 252.805 579.375 252.985 579.524 253.104 579.674 253.221 579.87 253.265 580.055 253.221L580.548 253.104 580.548 251.384 580.055 251.267C579.87 251.223 579.674 251.267 579.524 251.385Z" fill="#FFFFFF"></path>
    <path d="M575.411 251.267 574.916 251.384 574.916 253.104 575.411 253.221C575.596 253.265 575.792 253.221 575.941 253.104 576.091 252.985 576.179 252.805 576.179 252.614L576.179 251.874C576.179 251.683 576.091 251.504 575.941 251.385 575.792 251.267 575.596 251.223 575.411 251.267Z" fill="#FFFFFF"></path>
    <path d="M606.511 249.274C606.322 248.568 606.056 247.936 605.728 247.373 605.152 246.384 604.39 245.615 603.549 245.006 602.918 244.549 602.244 244.175 601.559 243.855 600.532 243.374 599.482 243.005 598.512 242.646 597.542 242.289 596.656 241.939 595.966 241.531 595.714 241.382 595.487 241.227 595.291 241.064 594.998 240.819 594.769 240.559 594.604 240.267 594.438 239.976 594.327 239.648 594.284 239.237 594.254 238.944 594.24 238.669 594.24 238.405 594.24 237.629 594.355 236.957 594.501 236.27 594.935 235.78 595.332 235.197 595.707 234.5 596.083 233.798 596.44 232.98 596.796 232.01 597.025 231.906 597.255 231.781 597.479 231.629 597.992 231.286 598.478 230.806 598.884 230.166 599.288 229.525 599.613 228.73 599.836 227.749 599.897 227.476 599.927 227.205 599.927 226.939 599.928 226.382 599.796 225.852 599.575 225.377 599.421 225.047 599.227 224.746 599 224.472 599.115 224.044 599.256 223.468 599.382 222.794 599.555 221.858 599.698 220.733 599.698 219.551 599.698 218.788 599.638 218 599.483 217.222 599.367 216.639 599.196 216.061 598.956 215.507 598.594 214.673 598.068 213.89 597.337 213.242 596.66 212.643 595.812 212.166 594.788 211.859 594.426 211.426 594.063 211.057 593.691 210.743 593.369 210.474 593.039 210.247 592.702 210.061 592.195 209.779 591.671 209.593 591.133 209.48 590.596 209.368 590.048 209.327 589.479 209.327 588.696 209.327 587.871 209.404 586.96 209.494 586.616 209.529 586.327 209.571 586.077 209.615 585.703 209.683 585.423 209.751 585.199 209.797 585.086 209.819 584.988 209.836 584.892 209.848 584.795 209.858 584.701 209.866 584.594 209.866 584.451 209.866 584.285 209.854 584.068 209.823 583.405 209.727 582.798 209.577 582.322 209.431 582.085 209.359 581.88 209.287 581.719 209.226 581.638 209.195 581.568 209.167 581.512 209.144 581.455 209.12 581.412 209.098 581.388 209.086L581.389 209.088C581.316 209.05 581.246 209.029 581.183 209.018 581.12 209.003 581.064 209 581.016 209 580.915 209 580.843 209.015 580.786 209.029 580.729 209.044 580.685 209.062 580.645 209.078 580.569 209.108 580.51 209.141 580.452 209.176 580.345 209.24 580.242 209.312 580.134 209.396 579.945 209.542 579.737 209.724 579.516 209.938 579.185 210.257 578.83 210.644 578.508 211.066 578.347 211.275 578.196 211.495 578.06 211.722 577.923 211.949 577.803 212.182 577.708 212.426 577.242 213.638 576.935 214.754 576.744 215.784 576.552 216.814 576.479 217.757 576.479 218.623 576.479 220.039 576.677 221.24 576.867 222.255 576.867 222.304 576.869 222.349 576.872 222.398 576.878 222.493 576.888 222.591 576.898 222.693 576.914 222.846 576.932 223.003 576.945 223.134 576.952 223.2 576.958 223.259 576.962 223.304 576.964 223.326 576.965 223.347 576.965 223.361L576.967 223.376 576.967 223.38 576.967 223.382 576.967 223.468 577.153 224.296C576.885 224.589 576.653 224.917 576.473 225.278 576.221 225.779 576.072 226.344 576.072 226.942 576.072 227.205 576.103 227.478 576.164 227.749 576.311 228.403 576.505 228.975 576.738 229.473 577.087 230.221 577.529 230.803 578.019 231.239 578.398 231.579 578.804 231.827 579.205 232.01 579.56 232.98 579.917 233.797 580.293 234.499 580.668 235.197 581.064 235.779 581.497 236.268 581.644 236.955 581.758 237.629 581.76 238.406 581.76 238.669 581.745 238.945 581.714 239.238 581.685 239.519 581.623 239.762 581.534 239.982 581.401 240.31 581.206 240.59 580.941 240.855 580.676 241.116 580.337 241.36 579.938 241.587 579.532 241.817 579.062 242.033 578.55 242.238 577.654 242.601 576.631 242.944 575.596 243.358 574.819 243.667 574.033 244.021 573.283 244.461 572.72 244.792 572.18 245.176 571.682 245.632 570.936 246.314 570.293 247.165 569.849 248.217 569.404 249.27 569.156 250.517 569.158 251.991 569.158 252.199 569.202 252.396 569.273 252.579 569.339 252.751 569.432 252.908 569.54 253.057 569.745 253.335 570.009 253.584 570.332 253.825 570.901 254.244 571.655 254.636 572.632 255.005 574.097 255.558 576.06 256.054 578.599 256.415 581.136 256.775 584.248 257 587.998 257 591.252 257 594.023 256.832 596.357 256.552 598.106 256.341 599.61 256.069 600.886 255.757 601.844 255.524 602.675 255.268 603.387 254.998 603.92 254.796 604.389 254.585 604.796 254.368 605.101 254.206 605.37 254.039 605.609 253.867 605.966 253.608 606.253 253.341 606.472 253.038 606.582 252.887 606.671 252.726 606.737 252.55 606.803 252.377 606.842 252.187 606.842 251.991 606.842 250.982 606.727 250.082 606.511 249.274ZM594.681 242.571 589.979 249.915 589.455 246.31 590.789 244.897 589.925 243.456 593.572 241.539C593.673 241.669 593.78 241.792 593.893 241.909 594.135 242.157 594.4 242.375 594.681 242.571ZM581.164 217.171C585.403 218.111 593.692 216.314 593.692 216.314 593.692 216.314 593.782 218.369 595.195 220.256 595.752 220.997 596.21 222.156 596.555 223.257 596.462 223.086 596.246 223.021 595.922 222.98 595.195 222.882 594.116 222.819 592.9 222.878 589.288 223.055 589.556 223.383 588.138 223.383 586.72 223.383 586.988 223.055 583.375 222.878 582.16 222.819 581.08 222.882 580.352 222.98 579.974 223.03 579.737 223.106 579.683 223.358 579.664 223.452 579.634 223.558 579.504 223.609 579.904 222.115 581.017 220.206 581.164 217.171ZM595.868 225.544C595.868 225.564 595.853 227.636 594.444 228.343 593.965 228.585 593.364 228.718 592.753 228.72 592.109 228.72 591.52 228.573 591.05 228.296 590.53 227.992 590.18 227.539 590.008 226.955 589.967 226.818 589.931 226.682 589.893 226.55 589.781 226.147 589.481 225.028 590.118 224.536 590.528 224.215 591.801 224.013 593.022 224.013 594.13 224.013 595.261 224.164 595.592 224.51 595.811 224.738 595.896 225.146 595.868 225.544ZM586.383 226.55C586.345 226.682 586.307 226.818 586.267 226.955 586.096 227.539 585.746 227.992 585.227 228.296 584.755 228.573 584.166 228.72 583.522 228.72 582.911 228.718 582.312 228.585 581.832 228.343 580.422 227.636 580.409 225.564 580.408 225.544 580.38 225.146 580.465 224.738 580.682 224.51 581.014 224.164 582.145 224.013 583.254 224.013 584.473 224.013 585.747 224.215 586.159 224.536 586.794 225.028 586.494 226.147 586.383 226.55ZM581.676 233.756C581.309 233.07 580.942 232.218 580.566 231.154L580.441 230.807 580.096 230.68C579.855 230.592 579.621 230.478 579.397 230.327 579.059 230.1 578.738 229.789 578.443 229.326 578.149 228.863 577.885 228.242 577.695 227.403 577.658 227.243 577.644 227.091 577.644 226.941 577.644 226.604 577.724 226.285 577.878 225.98 578.004 225.727 578.18 225.488 578.394 225.271 578.754 225.816 579.053 226.249 579.161 226.357 579.368 226.563 579.47 226.364 579.486 225.977 579.614 226.837 580.023 228.257 581.342 228.958 583.242 229.968 586.078 229.59 587.041 227.343 587.476 226.329 587.481 225.339 588.138 225.339 588.792 225.339 588.8 226.329 589.235 227.343 590.199 229.59 593.035 229.968 594.935 228.958 596.833 227.949 596.846 225.45 596.846 225.274 596.846 225.184 596.933 225.115 597.056 225.101 597.217 225.78 597.3 226.24 597.3 226.24 597.3 226.24 597.482 225.893 597.754 225.43 597.917 225.62 598.052 225.825 598.151 226.039 598.285 226.326 598.356 226.626 598.356 226.938 598.356 227.089 598.34 227.243 598.304 227.401 598.178 227.961 598.018 228.424 597.839 228.808 597.57 229.382 597.259 229.777 596.934 230.067 596.61 230.357 596.265 230.546 595.906 230.68L595.559 230.806 595.435 231.154C595.059 232.218 594.691 233.072 594.324 233.756 593.955 234.441 593.588 234.957 593.208 235.358L593.057 235.518 593.01 235.731C592.84 236.514 592.67 237.38 592.67 238.405 592.67 238.722 592.686 239.051 592.721 239.399 592.764 239.806 592.857 240.188 592.997 240.54 593.003 240.556 593.011 240.573 593.017 240.588L588.246 243.097 582.958 240.644C583.121 240.263 583.231 239.847 583.277 239.399 583.314 239.051 583.329 238.722 583.329 238.405 583.33 237.38 583.16 236.513 582.989 235.729L582.942 235.517 582.791 235.358C582.412 234.954 582.044 234.441 581.676 233.756ZM581.634 242.337C581.909 242.116 582.163 241.868 582.387 241.59L586.419 243.462 585.558 244.898 586.891 246.31 586.399 249.704 581.254 242.615C581.385 242.526 581.512 242.434 581.634 242.337ZM605.271 251.984C605.269 251.993 605.259 252.022 605.231 252.069 605.178 252.16 605.055 252.307 604.847 252.474 604.667 252.619 604.424 252.781 604.118 252.948 603.58 253.243 602.852 253.549 601.929 253.839 600.543 254.275 598.714 254.674 596.405 254.964 594.097 255.251 591.309 255.43 587.998 255.43 584.802 255.43 582.092 255.263 579.831 254.992 578.134 254.788 576.69 254.525 575.486 254.232 574.581 254.01 573.81 253.772 573.17 253.528 572.688 253.347 572.279 253.162 571.944 252.982 571.692 252.847 571.479 252.714 571.307 252.591 571.049 252.406 570.885 252.238 570.803 252.122 570.762 252.066 570.741 252.023 570.734 252.002 570.729 251.993 570.728 251.987 570.728 251.984 570.728 251.106 570.828 250.353 571 249.699 571.151 249.128 571.359 248.631 571.613 248.192 572.055 247.423 572.637 246.819 573.328 246.311 573.844 245.929 574.422 245.602 575.035 245.311 575.722 244.984 576.451 244.703 577.183 244.432L577.183 246.014 577.733 246.014 578.282 246.014 578.282 244.026C578.982 243.764 579.665 243.494 580.301 243.172L588.429 254.371 595.531 243.283C595.552 243.317 595.575 243.351 595.595 243.383 595.891 243.859 596.097 244.378 596.235 244.965 596.371 245.551 596.434 246.207 596.434 246.938 596.434 248.632 596.434 250.107 596.434 251.1L593.883 251.1 593.883 252.2 600.164 252.2 600.164 251.1 597.612 251.1C597.612 250.107 597.612 248.632 597.612 246.938 597.612 245.873 597.491 244.903 597.189 244.019 597.163 243.942 597.135 243.866 597.105 243.792 597.964 244.13 598.862 244.435 599.732 244.78 600.477 245.075 601.201 245.397 601.859 245.779 602.354 246.066 602.812 246.389 603.22 246.755 603.831 247.31 604.332 247.965 604.692 248.804 605.051 249.642 605.271 250.673 605.271 251.984L605.271 251.984Z" fill="#FFFFFF"></path>
  </g>
</svg>
