<?xml version="1.0" encoding="UTF-8"?>
<svg xmlns="http://www.w3.org/2000/svg" xmlns:xlink="http://www.w3.org/1999/xlink" width="56" height="56" xml:space="preserve" overflow="hidden">
  <defs>
    <clipPath id="clip0">
      <rect x="978" y="456" width="56" height="56"></rect>
    </clipPath>
  </defs>
  <g clip-path="url(#clip0)" transform="translate(-978 -456)">
    <path d="M1028.06 468.27C1026.55 457.298 1016.08 457.256 1006.94 456.431 999.146 455.728 985.985 454.565 984.673 465.14 984.042 470.225 984.916 475.292 984.826 480.39 984.668 489.401 984.596 498.347 983.746 507.327 983.673 508.092 984.697 508.231 985.064 507.696 990.15 513.113 1018.3 511.953 1023.51 511.774 1023.77 511.902 1024.03 511.877 1024.25 511.753 1024.26 511.753 1024.27 511.753 1024.27 511.753 1025.83 511.755 1025.83 509.334 1024.27 509.335 1024.06 509.335 1023.84 509.329 1023.63 509.329 1023.11 508.623 1022.75 507.821 1022.57 506.923 1022.22 505.163 1023.6 504.757 1024.96 504.378 1025.49 504.52 1026.06 504.318 1026.16 503.608 1027.23 496.432 1027.13 489.23 1027.45 481.999 1027.66 477.471 1028.68 472.799 1028.06 468.27ZM1021.08 509.301C1013.84 509.26 1006.62 509.1 999.381 508.868 995.209 508.735 980.872 508.568 989.973 501.658 999.004 494.802 1011.05 503.248 1021.13 503.84 1020.65 504.474 1020.35 505.255 1020.26 506.115 1020.15 507.23 1020.49 508.33 1021.08 509.301ZM1024.15 501.67C1017.63 498.911 1008.68 498.156 1001.92 497.465 996.242 496.885 990.289 497.621 986.516 501.738 987.746 494.216 987.223 486.301 987.352 478.768 987.411 475.306 986.918 471.84 986.892 468.376 986.87 465.407 987.662 463.34 988.98 461.896 987.479 474.05 987.968 486.746 988.931 498.884 988.967 499.342 989.644 499.354 989.652 498.884 989.873 486.209 989.839 473.556 990.146 460.883 993.121 458.758 997.703 458.589 1002.07 458.631 1007.37 458.682 1012.69 459.436 1017.91 460.271 1024.3 461.293 1025.71 466.292 1025.77 471.836 1025.85 481.549 1025.37 491.998 1024.15 501.67Z" fill="#FFFFFF"></path>
    <path d="M1001.17 477.622C1000.22 475.512 998.947 473.002 996.696 472.074 994.427 471.138 993.113 473.836 992.91 475.594 992.64 477.924 992.822 480.822 993.71 483.025 994.035 483.829 995.44 483.823 995.356 482.802 995.329 482.477 995.237 481.345 995.185 480.016 995.688 479.948 996.555 480.061 997.146 480.106 997.896 480.163 998.895 480.427 999.62 480.191 999.641 480.184 999.655 480.171 999.675 480.163 999.737 480.325 999.815 480.479 999.876 480.642 999.985 480.937 1000.05 481.323 1000.22 481.588 1000.42 481.899 1000.39 482.023 1000.39 481.741 1000.42 481.922 1000.5 482.108 1000.67 482.282 1000.67 482.288 1000.68 482.294 1000.68 482.3 1001.04 482.674 1001.72 482.687 1002.07 482.3 1003.15 481.109 1001.68 478.756 1001.17 477.622ZM996.944 478.109C996.361 478.113 995.737 478.106 995.15 478.216 995.155 476.031 995.372 473.999 996.217 474.462 997.396 475.108 998.172 476.788 998.765 478.051 998.15 478.03 997.482 478.105 996.944 478.109Z" fill="#FFFFFF"></path>
    <path d="M1017.92 476.614C1017.45 476.267 1016.94 476.074 1016.41 475.992 1016.48 475.692 1016.53 475.379 1016.55 475.047 1016.65 473.06 1015.27 471.026 1013.35 470.518 1011.72 470.088 1010.32 470.969 1009.51 472.251 1009.15 472.35 1008.84 472.644 1008.82 473.153 1008.8 473.494 1008.81 473.842 1008.8 474.187 1008.5 476.077 1008.82 478.049 1009.23 479.961 1009.37 480.767 1009.54 481.565 1009.75 482.343 1010.02 483.361 1011.06 483.473 1011.72 483.017 1012.48 484.587 1014.5 485.351 1016.15 484.812 1017.79 484.271 1018.84 482.602 1019.22 480.992 1019.59 479.418 1019.27 477.62 1017.92 476.614ZM1012.24 473.106C1013.15 472.731 1013.71 473.776 1013.91 474.488 1014.16 475.379 1013.81 476.044 1013.22 476.503 1012.63 476.734 1012.06 477.005 1011.56 477.268 1011.46 477.32 1011.4 477.39 1011.33 477.454 1011.02 475.517 1011.03 473.603 1012.24 473.106ZM1016.66 480.511C1016.51 481.143 1016.1 482.024 1015.45 482.294 1014.55 482.672 1013.7 481.646 1012.9 481.357 1012.66 481.271 1012.42 481.305 1012.2 481.404 1012.09 480.938 1011.92 480.288 1011.75 479.543 1011.98 479.649 1012.25 479.697 1012.55 479.62 1013.2 479.452 1013.79 479.196 1014.31 478.872 1015.73 478.403 1017.17 478.41 1016.66 480.511Z" fill="#FFFFFF"></path>
    <path d="M1008.87 488.306C1008.24 488.927 1007.83 489.46 1007.15 489.853 1006.92 489.981 1006.9 489.998 1006.47 490.098 1006.43 490.107 1006.43 490.11 1006.42 490.114 1006.4 490.114 1006.38 490.113 1006.3 490.118 1006.17 490.126 1006.03 490.117 1005.89 490.106 1006.34 490.143 1005.23 489.859 1005.62 490.03 1005.5 489.978 1005.39 489.914 1005.28 489.848 1005.25 489.83 1005.16 489.765 1005.1 489.722 1004.93 489.586 1004.79 489.434 1004.65 489.273 1004.6 489.215 1004.53 489.121 1004.51 489.091 1004.43 488.982 1004.37 488.867 1004.31 488.751 1004.29 488.718 1004.23 488.596 1004.2 488.532 1004.17 488.441 1004.14 488.35 1004.11 488.259 1004.07 488.137 1004.04 488.013 1004.02 487.889 1004.01 487.866 1004.01 487.875 1004.01 487.864 1004.01 487.841 1004.01 487.835 1004.01 487.78 1004 487.659 1004 487.537 1004.01 487.416 1004.01 487.377 1004.01 487.353 1004.01 487.33 1004.01 487.329 1004.01 487.329 1004.01 487.327 1004.03 487.213 1004.06 487.102 1004.1 486.991 1004.1 486.986 1004.1 486.99 1004.1 486.985 1004.11 486.967 1004.12 486.962 1004.15 486.912 1004.17 486.858 1004.18 486.847 1004.19 486.828 1004.19 486.822 1004.19 486.828 1004.2 486.819 1004.27 486.725 1004.36 486.641 1004.45 486.559 1004.46 486.548 1004.45 486.551 1004.46 486.545 1004.47 486.538 1004.51 486.52 1004.58 486.477 1004.64 486.445 1004.69 486.415 1004.75 486.387 1004.76 486.383 1004.76 486.384 1004.77 486.38 1005.47 486.117 1006.18 486.149 1006.98 486.189 1008.12 486.247 1008.26 484.596 1007.24 484.273 1005.43 483.7 1003.2 483.784 1002 485.455 1001.04 486.784 1001.28 488.519 1001.92 489.918 1002.55 491.295 1003.92 492.487 1005.44 492.726 1007.63 493.071 1009.79 491.737 1010.93 489.898 1011.73 488.612 1009.92 487.259 1008.87 488.306Z" fill="#FFFFFF"></path>
  </g>
</svg>
