<?xml version="1.0" encoding="UTF-8"?>
<svg xmlns="http://www.w3.org/2000/svg" xmlns:xlink="http://www.w3.org/1999/xlink" width="48" height="48" xml:space="preserve" overflow="hidden">
  <g transform="translate(-551 -41)">
    <path d="M591.811 73.6121 598.34 66.6175 591.811 59.623 578.055 59.623 578.055 48.3789C579.282 47.7121 580.125 46.428 580.125 44.9344 580.125 42.7622 578.363 41 576.19 41 574.017 41 572.256 42.7622 572.256 44.9344 572.256 46.428 573.098 47.7122 574.325 48.3789L574.325 52.1621 559.494 52.1621 551.66 60.5546 559.495 68.9489 574.325 68.9489 574.325 86.2021 566.281 86.2021 566.281 89 586.099 89 586.099 86.2022 578.055 86.2022 578.055 73.6121 591.811 73.6121ZM574.325 66.1512 560.71 66.1512 555.488 60.5555 560.711 54.9589 574.325 54.9589 574.325 66.1512Z" fill="#FFFFFF"></path>
  </g>
</svg>
