<?xml version="1.0" encoding="UTF-8"?>
<svg xmlns="http://www.w3.org/2000/svg" xmlns:xlink="http://www.w3.org/1999/xlink" width="96" height="96" xml:space="preserve" overflow="hidden">
  <g transform="translate(-676 -255)">
    <path d="M764.5 345 710.5 345C709.672 345 709 344.328 709 343.5L709 307.5C709 306.672 709.672 306 710.5 306L764.5 306C765.328 306 766 306.672 766 307.5L766 343.5C766 344.328 765.328 345 764.5 345ZM712 342 763 342 763 309 712 309Z" fill="#F57C00"></path>
    <path d="M737.5 331.5C737.224 331.498 736.954 331.42 736.72 331.275L709.72 314.775C708.946 314.479 708.559 313.612 708.854 312.838 709.15 312.064 710.017 311.677 710.791 311.973 710.947 312.032 711.092 312.118 711.22 312.225L737.5 328.245 763.72 312.225C764.354 311.692 765.301 311.775 765.833 312.409 766.366 313.044 766.283 313.99 765.649 314.523 765.521 314.63 765.376 314.715 765.22 314.775L738.22 331.275C738.003 331.41 737.755 331.488 737.5 331.5Z" fill="#F57C00"></path>
    <path d="M704.5 336.12C704.128 336.119 703.77 335.98 703.495 335.73 702.711 335.031 702.087 334.172 701.665 333.21L682.69 290.76C681.001 286.978 682.698 282.543 686.48 280.854 686.487 280.851 686.493 280.848 686.5 280.845L718.285 266.625C719.069 266.357 719.922 266.774 720.19 267.558 720.425 268.245 720.135 269.002 719.5 269.355L687.7 283.575C685.424 284.574 684.389 287.229 685.388 289.504 685.399 289.528 685.409 289.551 685.42 289.575L704.395 332.025C704.662 332.594 705.039 333.104 705.505 333.525 706.11 334.091 706.141 335.04 705.575 335.645 705.296 335.943 704.908 336.115 704.5 336.12Z" fill="#999999"></path>
    <path d="M704.5 304.845C704.153 304.85 703.817 304.727 703.555 304.5 701.908 303.171 700.602 301.469 699.745 299.535 696.719 292.721 699.789 284.744 706.603 281.717 708.823 280.731 711.268 280.363 713.68 280.65 714.508 280.749 715.099 281.502 715 282.33 714.901 283.158 714.148 283.749 713.32 283.65 707.562 282.961 702.336 287.07 701.646 292.828 701.219 296.403 702.652 299.948 705.445 302.22 706.067 302.768 706.127 303.715 705.579 304.337 705.305 304.648 704.915 304.832 704.5 304.845Z" fill="#666666"></path>
    <path d="M757.495 303C757.31 303.002 757.126 302.966 756.955 302.895 756.186 302.595 755.804 301.73 756.1 300.96L762.715 283.665C763.589 281.35 762.43 278.763 760.12 277.875L726.475 265.005C725.357 264.58 724.115 264.618 723.025 265.11 721.937 265.594 721.084 266.489 720.655 267.6L714.895 282.6 707.5 302.04C707.259 302.833 706.421 303.28 705.629 303.039 704.836 302.798 704.389 301.96 704.63 301.167 704.651 301.096 704.678 301.027 704.71 300.96L717.865 266.46C719.353 262.596 723.69 260.669 727.555 262.155L761.185 275.01C765.044 276.486 766.983 280.806 765.52 284.67L758.89 302.04C758.667 302.617 758.113 302.998 757.495 303Z" fill="#999999"></path>
    <path d="M731.725 300.72C731.541 300.714 731.358 300.679 731.185 300.615 724.219 297.956 720.729 290.153 723.388 283.188 726.047 276.222 733.849 272.731 740.815 275.391 744.436 276.773 747.288 279.645 748.645 283.275 748.939 284.049 748.55 284.916 747.775 285.21 747.775 285.21 747.775 285.21 747.775 285.21 747.001 285.504 746.134 285.115 745.84 284.34 745.84 284.34 745.84 284.34 745.84 284.34 743.798 278.912 737.743 276.168 732.315 278.21 726.888 280.252 724.143 286.307 726.185 291.734 727.241 294.543 729.449 296.765 732.25 297.84 733.029 298.123 733.431 298.983 733.148 299.762 732.932 300.36 732.361 300.756 731.725 300.75Z" fill="#666666"></path>
    <path d="M736 292.5C735.451 292.504 734.906 292.402 734.395 292.2 733.281 291.777 732.38 290.931 731.89 289.845 730.871 287.578 731.883 284.915 734.149 283.896 736.416 282.877 739.08 283.888 740.099 286.155 741.118 288.422 740.106 291.085 737.839 292.104 737.261 292.364 736.634 292.499 736 292.5ZM736 286.5C735.378 286.504 734.823 286.892 734.605 287.475 734.455 287.84 734.455 288.25 734.605 288.615 734.767 288.982 735.07 289.268 735.445 289.41 736.22 289.704 737.086 289.315 737.38 288.54 737.674 287.765 737.285 286.899 736.51 286.605 736.348 286.538 736.175 286.502 736 286.5Z" fill="#666666"></path>
    <path d="M739.99 298.845C738.209 298.856 736.595 297.798 735.895 296.16 735.401 295.08 735.368 293.845 735.805 292.74L738.475 285.735C738.773 284.96 739.643 284.574 740.417 284.872 741.192 285.171 741.578 286.04 741.28 286.815L738.595 293.82C738.306 294.596 738.7 295.46 739.477 295.749 739.848 295.888 740.259 295.874 740.62 295.71 740.978 295.548 741.258 295.252 741.4 294.885L745.9 283.275C746.194 282.5 747.06 282.111 747.835 282.405 748.61 282.699 748.999 283.565 748.705 284.34L744.205 295.95C743.789 297.084 742.935 298.002 741.835 298.5 741.252 298.747 740.623 298.865 739.99 298.845Z" fill="#666666"></path>
  </g>
</svg>
