<?xml version="1.0" encoding="UTF-8"?>
<svg xmlns="http://www.w3.org/2000/svg" xmlns:xlink="http://www.w3.org/1999/xlink" width="96" height="96" xml:space="preserve" overflow="hidden">
  <g transform="translate(-247 -310)">
    <path d="M295 310C268.491 310 247 331.491 247 358 247 384.509 268.491 406 295 406 321.509 406 343 384.509 343 358 343 331.491 321.509 310 295 310ZM288.729 319.622 288.992 319.315C289.661 318.543 290.419 317.668 290.533 316.165 290.632 314.915 290.191 314.034 289.714 313.319 291.449 313.116 293.211 313 295 313 297.198 313 299.354 313.165 301.468 313.47 301.861 313.96 302.377 314.471 303.214 314.815 304.102 315.198 305.151 315.5 306.47 315.189 306.861 315.095 307.164 314.931 307.424 314.75 308.352 315.016 309.268 315.304 310.171 315.626 310.487 316.54 311.095 317.629 312.577 317.816 313.411 317.935 314.108 317.805 314.719 317.542 327.431 323.75 336.772 335.771 339.304 350.143 339.058 350.662 339.022 351.172 339.014 351.495 339.012 351.585 339.019 351.676 339.026 351.7 338.973 351.784 338.904 351.828 338.569 351.988 338.186 352.172 337.664 352.424 337.183 352.931 336.635 353.497 336.383 354.056 336.181 354.507 336.023 354.858 335.934 355.048 335.77 355.211 335.665 355.314 335.461 355.375 335.14 355.468 334.513 355.648 333.566 355.919 332.93 356.95 332.326 357.923 332.377 358.823 332.413 359.48 332.417 359.555 332.423 359.632 332.427 359.71 332.311 359.767 332.17 359.826 332.023 359.874 332.11 359.4 332.122 358.744 331.698 358.07 331.125 357.196 330.367 357.064 329.968 357.064 329.206 357.064 328.632 357.502 328.263 357.861 328.27 357.134 328.253 356.466 328.135 355.965 328.024 355.461 328.094 355.18 328.331 354.367L328.414 354.082C328.521 353.695 328.732 353.419 329.023 353.035 329.423 352.51 329.922 351.858 330.159 350.849 330.424 349.751 330.346 348.941 330.27 348.157 330.241 347.88 330.212 347.587 330.199 347.25L330.171 346.456C330.141 345.523 330.117 344.717 329.887 343.542L329.784 343.018C329.552 341.837 329.352 340.819 328.508 339.534 327.787 338.455 327.217 337.698 325.953 337.026 325.654 336.862 325.344 336.73 325.027 336.631 324.516 336.46 324.047 336.401 323.594 336.343L323.126 336.28C322.327 336.163 321.607 336.302 321.078 336.41 320.648 336.497 320.375 336.568 320.161 336.449 319.947 336.332 319.844 336.21 319.579 335.874 319.438 335.695 319.289 335.508 319.093 335.29 318.895 335.077 318.76 334.879 318.63 334.691 318.372 334.324 318.052 333.865 317.49 333.41 316.889 332.923 316.432 332.581 315.571 332.28 314.039 331.772 312.631 332.151 311.416 332.581 310.42 332.926 309.812 333.427 309.274 333.868 309.039 334.063 308.789 334.27 308.548 334.432 308.311 334.57 308.098 334.666 307.897 334.762 307.423 334.983 306.884 335.234 306.289 335.764 305.875 336.127 304.469 337.043 304.144 337.126 303.999 337.12 303.854 337.061 303.592 336.949 303.253 336.802 302.791 336.605 302.257 336.562L301.931 336.543C301.831 336.543 301.728 336.548 301.651 336.556 300.97 336.607 300.492 336.829 300.139 336.99 300.001 337.052 299.86 337.125 299.683 337.168 299.164 337.297 298.579 337.288 297.991 337.257 297.051 337.208 296.128 337.236 295.282 337.475 294.587 337.672 294.085 338.011 293.719 338.26 293.324 338.527 293.23 338.573 293.08 338.575 292.928 338.575 292.82 338.512 292.402 338.182 291.988 337.855 291.419 337.406 290.581 337.174 289.977 337.012 289.546 336.96 289.09 336.904L288.674 336.853C287.887 336.739 287.324 336.693 286.687 336.64 286.392 336.616 286.079 336.592 285.715 336.556L285.292 336.548 285.223 336.576C285.173 336.578 285.115 336.582 285.051 336.585L285.034 336.574C284.554 336.24 284.057 335.896 283.328 335.542 282.792 335.278 282.355 335.077 281.875 334.905 281.854 334.369 281.794 333.655 281.633 333.175 281.599 333.065 281.563 332.97 281.517 332.849 281.533 332.78 281.563 332.665 281.621 332.49 281.816 331.926 282.12 331.503 282.251 331.333 282.332 331.277 282.408 331.229 282.479 331.181 282.76 331.001 283.107 330.776 283.464 330.389 284.464 329.331 284.918 328.309 285.033 326.854 285.122 325.555 284.398 324.682 283.918 324.103 283.78 323.94 283.567 323.683 283.537 323.65 283.602 323.396 283.714 323.287 284.341 322.871 284.683 322.645 285.04 322.404 285.38 322.105 285.767 321.771 286.139 321.559 286.569 321.315 287.241 320.932 288.001 320.499 288.729 319.622ZM253.609 375.677C251.902 371.686 250.759 367.396 250.271 362.911 250.639 362.221 251.085 361.552 251.691 360.814 252.124 360.297 252.585 359.983 253.115 359.621 253.762 359.18 254.495 358.68 255.19 357.811 256.024 356.796 256.297 355.712 256.517 354.841 256.754 353.906 256.889 353.441 257.384 353.098 258.074 352.627 258.621 352.576 259.611 352.483 259.966 352.452 260.342 352.414 260.758 352.355L261.31 352.275C263.257 351.988 264.5 351.859 266.119 352.315 267.217 352.622 267.893 353.135 268.75 353.784 269.314 354.211 269.953 354.694 270.769 355.16 271.402 355.522 271.938 355.921 272.455 356.306 273.612 357.166 274.807 358.054 276.794 358.345 277.935 358.503 278.895 358.15 279.622 357.875 279.987 357.736 280.332 357.605 280.546 357.605 280.595 357.605 280.659 357.61 280.76 357.665 281.743 358.211 281.962 358.664 282.003 358.975 281.793 359.034 281.488 359.086 281.264 359.126 280.21 359.311 278.248 359.655 278.021 361.675 277.908 362.65 278.242 363.26 278.547 363.599 279.332 364.486 280.798 364.392 282.449 364.02 283.16 363.859 283.897 363.691 284.487 363.691 284.755 363.691 284.914 363.727 284.986 363.753 285.421 363.91 285.891 364.026 286.348 364.133 286.549 364.18 286.818 364.243 287.048 364.306 286.879 364.337 286.705 364.369 286.558 364.395 285.867 364.513 285.085 364.648 284.37 364.988 283.806 365.251 283.324 365.5 282.872 365.736 281.952 366.212 281.223 366.591 280.112 366.892 279.773 366.982 279.259 366.906 278.717 366.814 278.289 366.741 277.846 366.665 277.378 366.665 276.271 366.665 275.4 367.105 274.793 367.963 273.408 369.901 274.229 371.927 274.625 372.904 275.164 374.229 276.433 375.808 279.406 375.808 280.806 375.808 282.424 375.467 284.499 374.738 285.93 374.232 286.768 373.315 287.44 372.577 287.983 371.98 288.412 371.509 289.105 371.2L289.868 370.852C291.44 370.128 292.591 369.612 293.827 370.194 294.159 370.349 294.302 370.646 294.604 371.391 294.953 372.258 295.434 373.445 296.77 374.156 297.987 374.802 299.506 374.568 300.616 374.25 301.282 374.059 301.816 373.896 302.203 374.122 302.609 374.363 302.777 374.69 303.086 375.348 303.362 375.934 303.704 376.663 304.366 377.356 304.564 377.565 304.75 377.767 304.928 377.962 306.025 379.164 307.063 380.297 309.117 380.784 309.412 380.853 309.714 380.887 310.013 380.887 311.064 380.887 311.908 380.469 312.586 380.131 313.168 379.843 313.617 379.627 313.982 379.741 315.514 380.242 315.832 380.586 315.976 381.198 316.102 381.688 315.583 382.1 313.66 383.029 313.354 383.177 313.049 383.324 312.76 383.474 311.727 384.007 310.953 384.073 309.781 384.173 309.313 384.212 308.814 384.256 308.275 384.329 307.188 384.466 306.205 384.702 305.254 384.93 304.158 385.194 303.121 385.441 302.219 385.441 301.318 385.441 300.598 385.194 299.902 384.647 299.332 384.191 299.068 383.707 298.702 383.038 298.436 382.552 298.137 382.001 297.663 381.375 297.244 380.846 296.884 380.087 296.536 379.351 295.768 377.727 294.812 375.704 292.639 375.704 292.268 375.704 291.883 375.771 291.493 375.902 289.804 376.471 289.242 377.824 288.831 378.811 288.654 379.236 288.487 379.636 288.262 379.966 287.699 380.768 287.416 381.62 287.164 382.372 286.742 383.633 286.611 383.782 286.275 383.831 285.733 383.909 285.392 383.68 284.587 383.098 284.347 382.924 284.098 382.742 283.834 382.569 283.315 382.224 283.009 381.841 282.62 381.355 282.187 380.814 281.695 380.198 280.889 379.62 279.994 378.96 279.185 378.643 278.473 378.362 277.897 378.138 277.399 377.943 276.85 377.578 276.642 377.439 276.457 377.204 276.242 376.931 275.755 376.314 275.018 375.379 273.564 375.327L273.412 375.323C272.315 375.323 270.784 375.714 269.713 377.569 269.324 378.241 269.053 379.148 268.762 380.108 268.291 381.676 267.645 383.82 266.632 383.82L266.63 383.82C265.583 383.749 262.501 381.051 261.019 379.753 259.957 378.823 259.039 378.021 258.378 377.583L257.879 377.239C256.747 376.452 255.58 375.64 254.038 375.64 253.897 375.64 253.753 375.663 253.609 375.677ZM295 403C277.774 403 262.813 393.316 255.251 379.096 255.54 379.271 255.841 379.474 256.164 379.698L256.707 380.071C257.211 380.406 258.099 381.181 259.039 382.005 262.159 384.734 264.514 386.677 266.432 386.807 269.823 387.031 270.911 383.356 271.632 380.968 271.858 380.214 272.095 379.434 272.308 379.061 272.706 378.375 273.085 378.318 273.466 378.316 273.55 378.361 273.75 378.616 273.882 378.784 274.19 379.177 274.578 379.666 275.182 380.07 276.003 380.614 276.73 380.899 277.375 381.151 277.993 381.393 278.527 381.603 279.118 382.04 279.605 382.388 279.914 382.777 280.275 383.225 280.738 383.803 281.26 384.456 282.172 385.065 282.403 385.217 282.616 385.372 282.823 385.521 283.795 386.229 284.915 387.046 286.693 386.798 288.951 386.474 289.585 384.577 290.005 383.322 290.211 382.71 290.404 382.132 290.727 381.669 291.134 381.072 291.38 380.482 291.595 379.963 291.98 379.039 292.108 378.857 292.447 378.743 292.552 378.708 292.609 378.697 292.648 378.703 292.953 378.799 293.517 379.992 293.819 380.632 294.22 381.479 294.674 382.44 295.286 383.211 295.606 383.632 295.828 384.042 296.066 384.474 296.496 385.261 296.983 386.155 298.034 386.998 299.275 387.969 300.642 388.441 302.216 388.441 303.474 388.441 304.678 388.153 305.95 387.847 306.822 387.637 307.724 387.421 308.662 387.304 309.16 387.237 309.61 387.199 310.031 387.161 311.336 387.052 312.568 386.945 314.134 386.138 314.401 386 314.68 385.866 314.962 385.73 316.829 384.828 319.652 383.464 318.886 380.482 318.304 378.001 316.098 377.278 314.901 376.888 314.522 376.768 314.134 376.706 313.745 376.706 312.736 376.706 311.911 377.116 311.248 377.446 310.672 377.732 310.19 377.953 309.799 377.865 308.65 377.591 308.082 376.969 307.141 375.94 306.951 375.73 306.751 375.516 306.538 375.289 306.211 374.945 306.021 374.54 305.8 374.071 305.422 373.267 304.953 372.267 303.734 371.542 302.51 370.815 300.93 371.036 299.782 371.368 299.121 371.559 298.586 371.727 298.178 371.508 297.836 371.328 297.682 371.009 297.385 370.27 297.025 369.378 296.533 368.155 295.105 367.482 294.313 367.109 293.526 366.928 292.701 366.928 291.216 366.928 289.949 367.513 288.608 368.133L287.884 368.464C286.617 369.028 285.844 369.877 285.221 370.56 284.639 371.198 284.219 371.659 283.501 371.913 281.782 372.517 280.443 372.812 279.408 372.812 278.016 372.812 277.615 372.288 277.406 371.779 276.9 370.53 276.948 370.117 277.38 369.672 277.642 369.672 277.922 369.727 278.215 369.776 278.998 369.909 280.015 370.022 280.888 369.796 282.319 369.409 283.259 368.92 284.255 368.402 284.672 368.185 285.115 367.956 285.646 367.708 285.999 367.542 286.543 367.447 287.066 367.357 288.232 367.156 290.66 366.741 290.483 364.231 290.302 361.987 288.258 361.507 287.035 361.219 286.691 361.138 286.339 361.06 286.001 360.937 285.576 360.785 285.111 360.707 284.586 360.698 284.805 360.375 284.956 359.973 284.998 359.469 285.125 357.633 284.191 356.146 282.216 355.049 281.69 354.76 281.13 354.613 280.549 354.613 279.781 354.613 279.132 354.861 278.559 355.079 278.043 355.275 277.592 355.436 277.225 355.384 275.995 355.204 275.262 354.659 274.249 353.906 273.688 353.49 273.051 353.016 272.262 352.562 271.612 352.194 271.105 351.808 270.566 351.401 269.59 350.662 268.581 349.896 266.936 349.434 264.844 348.845 263.062 348.99 260.875 349.314L260.336 349.393C259.979 349.444 259.65 349.474 259.337 349.503 258.202 349.609 257.029 349.719 255.688 350.633 254.238 351.642 253.893 353.011 253.613 354.112 253.436 354.812 253.282 355.417 252.862 355.931 252.438 356.462 251.992 356.766 251.43 357.15 250.987 357.451 250.504 357.787 250.009 358.25 250.006 358.162 250 358.082 250 358 250 336.082 265.675 317.832 286.424 313.827 286.591 314.085 286.762 314.335 286.926 314.561 287.448 315.281 287.577 315.511 287.542 315.934 287.505 316.431 287.315 316.669 286.724 317.35L286.431 317.695C286.04 318.163 285.64 318.392 285.083 318.709 284.591 318.991 284.032 319.309 283.417 319.84 283.172 320.053 282.922 320.215 282.685 320.371 281.969 320.845 280.988 321.496 280.629 322.922 280.263 324.397 281.107 325.415 281.612 326.025 281.775 326.223 282.049 326.552 282.043 326.641 281.983 327.406 281.823 327.771 281.272 328.351 281.165 328.468 281.073 328.53 280.858 328.669 280.689 328.777 280.51 328.894 280.312 329.046L280.13 329.211C280.04 329.305 279.251 330.175 278.784 331.537 278.428 332.609 278.413 333.169 278.717 333.934L278.784 334.111C278.837 334.293 278.888 334.931 278.892 335.344L278.766 337.171 279.987 337.475C280.789 337.675 281.195 337.841 282.016 338.246 282.543 338.5 282.889 338.741 283.327 339.046L283.768 339.345C284.356 339.695 284.953 339.634 285.587 339.564 285.904 339.595 286.183 339.616 286.448 339.638 287.026 339.684 287.536 339.725 288.262 339.831L288.733 339.889C289.099 339.934 289.39 339.966 289.795 340.073 290.026 340.138 290.223 340.288 290.548 340.543 291.103 340.981 291.863 341.579 293.105 341.579 294.191 341.572 294.893 341.095 295.406 340.745 295.703 340.544 295.882 340.427 296.104 340.366 296.626 340.217 297.223 340.224 297.831 340.255 298.707 340.305 299.593 340.286 300.415 340.082 300.797 339.987 301.102 339.854 301.393 339.72 301.648 339.603 301.742 339.562 301.774 339.556L301.882 339.559 301.96 339.55C302.059 339.557 302.214 339.624 302.409 339.706 302.794 339.871 303.32 340.099 304.116 340.126 305.734 340.126 308.242 338.041 308.272 338.016 308.551 337.77 308.784 337.661 309.171 337.48 309.444 337.353 309.73 337.216 310.125 336.987 310.539 336.712 310.868 336.445 311.18 336.189 311.622 335.827 311.911 335.587 312.41 335.413 313.456 335.041 313.954 334.903 314.602 335.122 314.973 335.251 315.122 335.354 315.601 335.743 315.835 335.932 315.96 336.112 316.169 336.41 316.374 336.703 316.59 337.006 316.882 337.318 317.013 337.464 317.12 337.6 317.223 337.73 317.549 338.143 317.956 338.659 318.718 339.079 319.667 339.595 320.83 339.52 321.685 339.348 322.069 339.27 322.367 339.198 322.687 339.247L323.218 339.319C323.584 339.366 323.848 339.4 324.104 339.484 324.233 339.523 324.368 339.577 324.531 339.664 325.188 340.013 325.434 340.326 326.011 341.19 326.524 341.973 326.637 342.548 326.842 343.595L326.948 344.131C327.13 345.053 327.15 345.681 327.175 346.547L327.205 347.374C327.221 347.771 327.253 348.12 327.286 348.448 327.35 349.105 327.393 349.54 327.244 350.155 327.156 350.53 326.977 350.777 326.641 351.219 326.26 351.718 325.786 352.341 325.531 353.272L325.456 353.527C325.185 354.457 324.927 355.336 325.216 356.637 325.284 356.926 325.27 357.776 325.259 358.397 325.231 360.095 325.215 361.217 325.926 361.94 326.251 362.272 326.683 362.453 327.142 362.453L327.607 362.422 327.913 362.275C328.341 362.071 328.711 361.779 329.044 361.454 329.056 361.482 329.066 361.507 329.077 361.534 329.49 362.455 330.372 362.984 331.5 362.984 332.736 362.984 335.237 362.108 335.409 360.487 335.449 360.06 335.432 359.672 335.411 359.308 335.38 358.781 335.391 358.68 335.491 358.519 335.549 358.474 335.802 358.401 335.968 358.354 336.493 358.203 337.208 357.999 337.872 357.358 338.452 356.782 338.711 356.203 338.92 355.74 339.076 355.392 339.166 355.201 339.349 355.012 339.457 354.898 339.604 354.823 339.871 354.695 339.946 355.788 340 356.887 340 358 340 382.852 319.852 403 295 403Z" fill="#91BF38"></path>
    <path d="M313.944 352.243C312.294 352.719 311.699 353.979 311.264 354.9 311.032 355.395 310.829 355.82 310.496 356.128 309.909 356.677 309.34 356.98 308.68 357.331 307.948 357.721 307.118 358.162 306.26 358.963 305.954 359.246 305.604 359.491 305.269 359.729 304.164 360.514 302.491 361.701 302.982 363.935 303.302 365.338 304.381 366.175 305.865 366.175 306.847 366.175 307.914 365.832 308.947 365.499 309.457 365.335 309.962 365.168 310.423 365.066 313.051 364.492 314.849 363.803 316.818 361.827 317.034 361.612 317.258 361.397 317.487 361.178 319.188 359.559 321.755 357.109 319.846 354.274 318.562 352.346 316.286 351.569 313.944 352.243ZM315.415 359.007C315.172 359.239 314.93 359.47 314.695 359.704 313.22 361.186 311.986 361.652 309.78 362.135 309.232 362.255 308.629 362.448 308.025 362.643 307.271 362.884 306.421 363.16 305.904 363.173 305.935 362.991 306.173 362.767 307.006 362.176 307.413 361.887 307.876 361.558 308.303 361.159 308.876 360.626 309.438 360.327 310.089 359.98 310.828 359.586 311.668 359.14 312.536 358.327 313.292 357.631 313.672 356.827 313.977 356.181 314.361 355.369 314.479 355.211 314.775 355.126 315.064 355.042 315.346 355 315.613 355 316.349 355 316.935 355.315 317.353 355.944 317.74 356.518 317.305 357.205 315.415 359.007Z" fill="#91BF38"></path>
    <path d="M295.633 389.622C295.286 389.622 294.935 389.676 294.573 389.786 292.385 390.492 292.489 392.688 292.543 393.868 292.564 394.302 292.582 394.711 292.542 395.068 292.507 395.393 292.417 395.706 292.337 396.005 292.07 397.013 291.668 398.534 292.993 399.84 293.617 400.44 294.405 400.758 295.273 400.758 296.561 400.758 298.012 400.012 299.163 398.757 300.923 396.796 300.945 393.931 299.227 391.807 298.426 390.789 297.297 389.622 295.633 389.622ZM296.938 396.741C296.329 397.408 295.639 397.758 295.273 397.758 295.183 397.758 295.138 397.74 295.066 397.678 295.034 397.54 295.159 397.079 295.238 396.773 295.345 396.367 295.468 395.905 295.522 395.402 295.591 394.816 295.562 394.238 295.54 393.727 295.523 393.378 295.501 392.87 295.544 392.63 295.797 392.586 296.092 392.674 296.879 393.676 297.688 394.677 297.709 395.884 296.938 396.741Z" fill="#91BF38"></path>
  </g>
</svg>
