<?xml version="1.0" standalone="no"?>
<!DOCTYPE svg PUBLIC "-//W3C//DTD SVG 1.1//EN" "http://www.w3.org/Graphics/SVG/1.1/DTD/svg11.dtd" >
<svg xmlns="http://www.w3.org/2000/svg">
<metadata>Generated by IcoMoon</metadata>
<defs>
<font id="icomoon" horiz-adv-x="1024">
<font-face units-per-em="1024" ascent="960" descent="-64" />
<missing-glyph horiz-adv-x="1024" />
<glyph unicode="&#x20;" horiz-adv-x="512" d="" />
<glyph unicode="&#xe900;" glyph-name="dot-circle-filled" d="M512 960c-281.6 0-512-230.4-512-512s230.4-512 512-512 512 230.4 512 512-230.4 512-512 512zM307.2 396.8c-30.72 0-51.2 20.48-51.2 51.2s20.48 51.2 51.2 51.2 51.2-20.48 51.2-51.2-20.48-51.2-51.2-51.2zM512 396.8c-30.72 0-51.2 20.48-51.2 51.2s20.48 51.2 51.2 51.2 51.2-20.48 51.2-51.2-20.48-51.2-51.2-51.2zM716.8 396.8c-30.72 0-51.2 20.48-51.2 51.2s20.48 51.2 51.2 51.2 51.2-20.48 51.2-51.2-20.48-51.2-51.2-51.2z" />
<glyph unicode="&#xe901;" glyph-name="dot-circle-outline" d="M972.8 448c0 254.493-206.305 460.8-460.8 460.8-254.493 0-460.8-206.307-460.8-460.8 0-254.495 206.307-460.8 460.8-460.8 254.495 0 460.8 206.305 460.8 460.8zM1024 448c0-282.767-229.233-512-512-512-282.77 0-512 229.233-512 512 0 282.77 229.23 512 512 512 282.767 0 512-229.23 512-512zM512 396.8c-28.277 0-51.2 22.922-51.2 51.2s22.923 51.2 51.2 51.2c28.278 0 51.2-22.923 51.2-51.2s-22.922-51.2-51.2-51.2zM768 448c0 28.277-22.922 51.2-51.2 51.2s-51.2-22.923-51.2-51.2c0-28.278 22.922-51.2 51.2-51.2s51.2 22.922 51.2 51.2zM307.2 396.8c-28.277 0-51.2 22.922-51.2 51.2s22.923 51.2 51.2 51.2c28.277 0 51.2-22.923 51.2-51.2s-22.923-51.2-51.2-51.2z" />
<glyph unicode="&#xe902;" glyph-name="dot-square-filled" d="M910.222 960h-796.444c-62.578 0-113.778-51.2-113.778-113.778v-796.444c0-62.578 51.2-113.778 113.778-113.778h796.444c62.578 0 113.778 51.2 113.778 113.778v796.444c0 62.578-51.2 113.778-113.778 113.778zM284.444 391.111c-34.133 0-56.889 22.756-56.889 56.889s22.756 56.889 56.889 56.889 56.889-22.756 56.889-56.889-22.756-56.889-56.889-56.889zM512 391.111c-34.133 0-56.889 22.756-56.889 56.889s22.756 56.889 56.889 56.889 56.889-22.756 56.889-56.889-22.756-56.889-56.889-56.889zM739.556 391.111c-34.133 0-56.889 22.756-56.889 56.889s22.756 56.889 56.889 56.889 56.889-22.756 56.889-56.889-22.756-56.889-56.889-56.889z" />
<glyph unicode="&#xe903;" glyph-name="dot-square-outline" d="M113.778 903.111c-31.419 0-56.889-25.47-56.889-56.889v-796.444c0-31.42 25.47-56.889 56.889-56.889h796.444c31.42 0 56.889 25.469 56.889 56.889v796.444c0 31.419-25.469 56.889-56.889 56.889h-796.444zM0 846.222c0 62.838 50.94 113.778 113.778 113.778h796.444c62.839 0 113.778-50.94 113.778-113.778v-796.444c0-62.839-50.938-113.778-113.778-113.778h-796.444c-62.838 0-113.778 50.938-113.778 113.778v796.444zM512 391.111c-31.419 0-56.889 25.47-56.889 56.889s25.47 56.889 56.889 56.889c31.419 0 56.889-25.47 56.889-56.889s-25.47-56.889-56.889-56.889zM796.444 448c0 31.419-25.469 56.889-56.889 56.889s-56.889-25.47-56.889-56.889c0-31.419 25.469-56.889 56.889-56.889s56.889 25.47 56.889 56.889zM284.444 391.111c-31.419 0-56.889 25.47-56.889 56.889s25.47 56.889 56.889 56.889c31.419 0 56.889-25.47 56.889-56.889s-25.47-56.889-56.889-56.889z" />
<glyph unicode="&#xe904;" glyph-name="dots" d="M0 448c0 62.838 50.94 113.778 113.778 113.778s113.778-50.94 113.778-113.778c0-62.838-50.94-113.778-113.778-113.778s-113.778 50.94-113.778 113.778zM398.222 448c0 62.838 50.94 113.778 113.778 113.778s113.778-50.94 113.778-113.778-50.938-113.778-113.778-113.778c-62.838 0-113.778 50.94-113.778 113.778zM910.222 561.778c-62.839 0-113.778-50.94-113.778-113.778s50.938-113.778 113.778-113.778c62.839 0 113.778 50.94 113.778 113.778s-50.938 113.778-113.778 113.778z" />
<glyph unicode="&#xe905;" glyph-name="Circle-Rounded" d="M930.909 448c0 231.357-187.55 418.909-418.909 418.909-231.357 0-418.909-187.552-418.909-418.909 0-231.359 187.552-418.909 418.909-418.909 231.359 0 418.909 187.55 418.909 418.909zM1024 448c0-282.768-229.232-512-512-512-282.77 0-512 229.232-512 512 0 282.77 229.23 512 512 512 282.768 0 512-229.23 512-512zM325.818 680.727h372.364c25.707 0 46.545-20.839 46.545-46.545s-20.838-46.545-46.545-46.545h-372.364c-25.706 0-46.545 20.839-46.545 46.545s20.839 46.545 46.545 46.545zM325.818 494.545h372.364c25.707 0 46.545-20.838 46.545-46.545s-20.838-46.545-46.545-46.545h-372.364c-25.706 0-46.545 20.838-46.545 46.545s20.839 46.545 46.545 46.545zM698.182 308.364h-372.364c-25.706 0-46.545-20.838-46.545-46.545s20.839-46.545 46.545-46.545h372.364c25.707 0 46.545 20.838 46.545 46.545s-20.838 46.545-46.545 46.545z" />
<glyph unicode="&#xe906;" glyph-name="Circle-sharp" d="M930.909 448c0 231.357-187.55 418.909-418.909 418.909-231.357 0-418.909-187.552-418.909-418.909 0-231.359 187.552-418.909 418.909-418.909 231.359 0 418.909 187.55 418.909 418.909zM1024 448c0-282.768-229.232-512-512-512-282.77 0-512 229.232-512 512 0 282.77 229.23 512 512 512 282.768 0 512-229.23 512-512zM744.727 587.636h-465.455v93.091h465.455v-93.091zM279.273 215.273h465.455v93.091h-465.455v-93.091zM744.727 494.545v-93.091h-465.455v93.091h465.455z" />
<glyph unicode="&#xe907;" glyph-name="Circle-Thin" d="M791.273 424.727h-558.545v46.545h558.545v-46.545zM791.273 657.455h-558.545v-46.545h558.545v46.545zM791.273 285.091h-558.545v-46.545h558.545v46.545zM512 890.182c256 0 465.455-200.145 465.455-442.182s-209.455-442.182-465.455-442.182-465.455 200.145-465.455 442.182 209.455 442.182 465.455 442.182zM512 936.727c-283.927 0-512-218.764-512-488.727s228.073-488.727 512-488.727 512 218.764 512 488.727-228.073 488.727-512 488.727v0z" />
<glyph unicode="&#xe908;" glyph-name="Filled-Circle-Rounded" d="M512 960c-283.927 0-512-228.073-512-512s228.073-512 512-512 512 228.073 512 512-228.073 512-512 512zM698.182 215.273h-372.364c-27.927 0-46.545 18.618-46.545 46.545s18.618 46.545 46.545 46.545h372.364c27.927 0 46.545-18.618 46.545-46.545s-18.618-46.545-46.545-46.545zM698.182 401.455h-372.364c-27.927 0-46.545 18.618-46.545 46.545s18.618 46.545 46.545 46.545h372.364c27.927 0 46.545-18.618 46.545-46.545s-18.618-46.545-46.545-46.545zM698.182 587.636h-372.364c-27.927 0-46.545 18.618-46.545 46.545s18.618 46.545 46.545 46.545h372.364c27.927 0 46.545-18.618 46.545-46.545s-18.618-46.545-46.545-46.545z" />
<glyph unicode="&#xe909;" glyph-name="Filled-Circle-Sharp" d="M512 960c-283.927 0-512-228.073-512-512s228.073-512 512-512 512 228.073 512 512-228.073 512-512 512zM744.727 215.273h-465.455v93.091h465.455v-93.091zM744.727 401.455h-465.455v93.091h465.455v-93.091zM744.727 587.636h-465.455v93.091h465.455v-93.091z" />
<glyph unicode="&#xe90a;" glyph-name="Filled-Circle-Thin" d="M512 936.727c-283.927 0-512-218.764-512-488.727s228.073-488.727 512-488.727 512 218.764 512 488.727-228.073 488.727-512 488.727zM791.273 238.545h-558.545v46.545h558.545v-46.545zM791.273 424.727h-558.545v46.545h558.545v-46.545zM791.273 610.909h-558.545v46.545h558.545v-46.545z" />
<glyph unicode="&#xe90b;" glyph-name="Filled-Square-Rounded" d="M102.4 960h819.2c56.556 0 102.4-45.846 102.4-102.4v-819.2c0-56.556-45.844-102.4-102.4-102.4h-819.2c-56.554 0-102.4 45.844-102.4 102.4v819.2c0 56.554 45.846 102.4 102.4 102.4zM307.2 704c-28.277 0-51.2-22.923-51.2-51.2s22.923-51.2 51.2-51.2h409.6c28.278 0 51.2 22.923 51.2 51.2s-22.922 51.2-51.2 51.2h-409.6zM307.2 499.2c-28.277 0-51.2-22.923-51.2-51.2s22.923-51.2 51.2-51.2h409.6c28.278 0 51.2 22.922 51.2 51.2s-22.922 51.2-51.2 51.2h-409.6zM716.8 294.4h-409.6c-28.277 0-51.2-22.922-51.2-51.2s22.923-51.2 51.2-51.2h409.6c28.278 0 51.2 22.922 51.2 51.2s-22.922 51.2-51.2 51.2z" />
<glyph unicode="&#xe90c;" glyph-name="Filled-Square-Sharp" d="M1024 960v-1024h-1024v1024h1024zM768 704h-512v-102.4h512v102.4zM768 499.2h-512v-102.4h512v102.4zM256 294.4v-102.4h512v102.4h-512z" />
<glyph unicode="&#xe90d;" glyph-name="Filled-Square-Thin" d="M102.4 934.4h819.2c56.556 0 102.4-45.846 102.4-102.4v-768c0-56.556-45.844-102.4-102.4-102.4h-819.2c-56.554 0-102.4 45.844-102.4 102.4v768c0 56.554 45.846 102.4 102.4 102.4zM819.2 678.4h-614.4v-51.2h614.4v51.2zM819.2 473.6h-614.4v-51.2h614.4v51.2zM204.8 268.8v-51.2h614.4v51.2h-614.4z" />
<glyph unicode="&#xe90e;" glyph-name="Grid-Round" d="M0 846.222c0 62.838 50.94 113.778 113.778 113.778s113.778-50.94 113.778-113.778c0-62.838-50.94-113.778-113.778-113.778s-113.778 50.94-113.778 113.778zM0 448c0 62.838 50.94 113.778 113.778 113.778s113.778-50.94 113.778-113.778c0-62.839-50.94-113.778-113.778-113.778s-113.778 50.938-113.778 113.778zM113.778 163.556c-62.838 0-113.778-50.938-113.778-113.778s50.94-113.778 113.778-113.778c62.838 0 113.778 50.938 113.778 113.778s-50.94 113.778-113.778 113.778zM398.222 846.222c0 62.838 50.94 113.778 113.778 113.778s113.778-50.94 113.778-113.778-50.938-113.778-113.778-113.778c-62.838 0-113.778 50.94-113.778 113.778zM512 561.778c-62.838 0-113.778-50.94-113.778-113.778s50.94-113.778 113.778-113.778c62.839 0 113.778 50.938 113.778 113.778 0 62.838-50.938 113.778-113.778 113.778zM398.222 49.778c0 62.839 50.94 113.778 113.778 113.778s113.778-50.938 113.778-113.778-50.938-113.778-113.778-113.778c-62.838 0-113.778 50.938-113.778 113.778zM910.222 960c-62.839 0-113.778-50.94-113.778-113.778s50.938-113.778 113.778-113.778c62.839 0 113.778 50.94 113.778 113.778s-50.938 113.778-113.778 113.778zM796.444 448c0 62.838 50.938 113.778 113.778 113.778s113.778-50.94 113.778-113.778c0-62.839-50.938-113.778-113.778-113.778s-113.778 50.938-113.778 113.778zM910.222 163.556c-62.839 0-113.778-50.938-113.778-113.778s50.938-113.778 113.778-113.778c62.839 0 113.778 50.938 113.778 113.778s-50.938 113.778-113.778 113.778z" />
<glyph unicode="&#xe90f;" glyph-name="Grid-Sharp" d="M0 960h227.556v-227.556h-227.556v227.556zM0 561.778h227.556v-227.556h-227.556v227.556zM227.556 163.556h-227.556v-227.556h227.556v227.556zM398.222 960h227.556v-227.556h-227.556v227.556zM625.778 561.778h-227.556v-227.556h227.556v227.556zM398.222 163.556h227.556v-227.556h-227.556v227.556zM1024 960h-227.556v-227.556h227.556v227.556zM796.444 561.778h227.556v-227.556h-227.556v227.556zM1024 163.556h-227.556v-227.556h227.556v227.556z" />
<glyph unicode="&#xe910;" glyph-name="hamburger-rounded" d="M0 732.444c0 31.419 25.47 56.889 56.889 56.889h910.222c31.42 0 56.889-25.47 56.889-56.889s-25.469-56.889-56.889-56.889h-910.222c-31.419 0-56.889 25.47-56.889 56.889zM0 448c0 31.419 25.47 56.889 56.889 56.889h910.222c31.42 0 56.889-25.47 56.889-56.889s-25.469-56.889-56.889-56.889h-910.222c-31.419 0-56.889 25.47-56.889 56.889zM1024 163.556c0 31.42-25.469 56.889-56.889 56.889h-910.222c-31.419 0-56.889-25.469-56.889-56.889s25.47-56.889 56.889-56.889h910.222c31.42 0 56.889 25.469 56.889 56.889z" />
<glyph unicode="&#xe911;" glyph-name="hamburger-sharp" d="M0 789.333h1024v-113.778h-1024v113.778zM0 504.889h1024v-113.778h-1024v113.778zM1024 220.444h-1024v-113.778h1024v113.778z" />
<glyph unicode="&#xe912;" glyph-name="hamburger-thin" d="M0 760.889h1024v-56.889h-1024v56.889zM0 476.444h1024v-56.889h-1024v56.889zM1024 192h-1024v-56.889h1024v56.889z" />
<glyph unicode="&#xe913;" glyph-name="Square-rounded" d="M102.4 857.6v-819.2h819.2v819.2h-819.2zM0 857.6c0 56.554 45.846 102.4 102.4 102.4h819.2c56.556 0 102.4-45.846 102.4-102.4v-819.2c0-56.556-45.844-102.4-102.4-102.4h-819.2c-56.554 0-102.4 45.844-102.4 102.4v819.2zM307.2 704h409.6c28.278 0 51.2-22.923 51.2-51.2s-22.922-51.2-51.2-51.2h-409.6c-28.277 0-51.2 22.923-51.2 51.2s22.923 51.2 51.2 51.2zM307.2 499.2h409.6c28.278 0 51.2-22.923 51.2-51.2s-22.922-51.2-51.2-51.2h-409.6c-28.277 0-51.2 22.922-51.2 51.2s22.923 51.2 51.2 51.2zM716.8 294.4h-409.6c-28.277 0-51.2-22.922-51.2-51.2s22.923-51.2 51.2-51.2h409.6c28.278 0 51.2 22.922 51.2 51.2s-22.922 51.2-51.2 51.2z" />
<glyph unicode="&#xe914;" glyph-name="Square-sharp" d="M102.4 857.6v-819.2h819.2v819.2h-819.2zM0-64v1024h1024v-1024h-1024zM768 704v-102.4h-512v102.4h512zM768 499.2v-102.4h-512v102.4h512zM256 294.4v-102.4h512v102.4h-512z" />
<glyph unicode="&#xe915;" glyph-name="Square-thin" d="M102.4 885.76c-28.277 0-51.2-21.777-51.2-48.64v-778.24c0-26.865 22.923-48.64 51.2-48.64h819.2c28.278 0 51.2 21.775 51.2 48.64v778.24c0 26.863-22.922 48.64-51.2 48.64h-819.2zM0 837.12c0 53.726 45.846 97.28 102.4 97.28h819.2c56.556 0 102.4-43.554 102.4-97.28v-778.24c0-53.724-45.844-97.28-102.4-97.28h-819.2c-56.554 0-102.4 43.556-102.4 97.28v778.24zM819.2 678.4v-51.2h-614.4v51.2h614.4zM819.2 473.6v-51.2h-614.4v51.2h614.4zM204.8 268.8v-51.2h614.4v51.2h-614.4z" />
</font>
</defs>
</svg>
