<?xml version="1.0" encoding="UTF-8"?>
<svg xmlns="http://www.w3.org/2000/svg" xmlns:xlink="http://www.w3.org/1999/xlink" width="144" height="144" xml:space="preserve" overflow="hidden">
  <g transform="translate(-1019 -407)">
    <path d="M1156.12 497.068 1130.44 497.068 1139.19 472.361C1140.36 469.052 1138.85 465.448 1135.78 463.92L1135.78 463.917 1127.96 459.08 1095.95 439.282C1091.97 436.819 1086.75 438.02 1084.24 441.974L1074 458.945C1070.53 462.729 1066.96 466.81 1063.6 470.686 1062.32 471.775 1058.75 474.79 1054.54 478.522 1055.14 479.657 1055.49 480.952 1055.49 482.326L1055.49 487.03C1057.55 487.03 1058.87 487.03 1060.92 487.03L1073.18 473.982C1074.46 470.969 1083.86 450.416 1085.16 447.348L1077.41 477.823 1059.44 496.51C1057.24 498.792 1057.32 502.419 1059.6 504.613 1061.88 506.806 1065.51 506.736 1067.7 504.454L1086.75 484.643C1087.46 483.908 1087.95 482.997 1088.19 482.004L1095.09 455.411 1093.47 484.887 1096.51 488.03 1087.17 499.633C1085.51 501.695 1085.18 504.526 1086.32 506.914 1087.46 509.302 1089.88 510.822 1092.52 510.822L1110.92 510.822C1107.8 508.023 1107.22 503.124 1109.43 499.95 1112.03 496.214 1120.4 484.241 1120.4 484.241L1114.23 501.65C1113.49 503.755 1113.81 506.091 1115.1 507.914 1116.39 509.738 1118.48 510.822 1120.71 510.822L1156.12 510.822C1159.92 510.822 1163 507.743 1163 503.945 1163 500.147 1159.92 497.068 1156.12 497.068Z" fill="#F3781E"></path>
    <path d="M1078.68 439.651C1078.68 449.082 1071.03 456.728 1061.6 456.728 1052.17 456.728 1044.52 449.082 1044.52 439.651 1044.52 430.22 1052.17 422.574 1061.6 422.574 1071.03 422.574 1078.68 430.22 1078.68 439.651Z" fill="#F3781E"></path>
    <path d="M1055.72 492.568 1049.95 492.568 1049.95 482.325C1049.95 480.905 1048.8 479.754 1047.38 479.754L1029.5 479.754C1028.08 479.754 1026.93 480.905 1026.93 482.325L1026.93 492.568 1021.57 492.568C1020.15 492.568 1019 493.719 1019 495.138L1019 504.982C1019 506.402 1020.15 507.553 1021.57 507.553L1051.49 507.553C1049.58 503.435 1050.24 498.398 1053.54 494.888L1055.72 492.568Z" fill="#F3781E"></path>
    <path d="M1071.57 522.07 1053.95 522.07C1052.45 522.07 1051.24 523.284 1051.24 524.782L1051.24 532.714C1051.24 534.212 1052.45 535.426 1053.95 535.426L1071.57 535.426C1073.07 535.426 1074.29 534.212 1074.29 532.714L1074.29 524.782C1074.29 523.284 1073.07 522.07 1071.57 522.07Z" fill="#F3781E"></path>
    <path d="M1044.33 522.617C1041.84 520.128 1035.19 513.48 1034.4 512.69 1033.87 512.166 1033.02 512.166 1032.5 512.69 1031.71 513.476 1026.86 518.327 1022.57 522.617 1021.73 523.46 1022.33 524.91 1023.52 524.91L1043.38 524.91C1044.57 524.91 1045.17 523.462 1044.33 522.617Z" fill="#F3781E"></path>
  </g>
</svg>
