<?xml version="1.0" encoding="UTF-8"?>
<svg xmlns="http://www.w3.org/2000/svg" xmlns:xlink="http://www.w3.org/1999/xlink" width="144" height="144" xml:space="preserve" overflow="hidden">
  <defs>
    <clipPath id="clip0">
      <rect x="510" y="114" width="144" height="144"></rect>
    </clipPath>
  </defs>
  <g clip-path="url(#clip0)" transform="translate(-510 -114)">
    <path d="M651.544 202.003C654.083 200.306 654.764 196.871 653.066 194.333L633.71 165.392C631.145 161.561 627.226 159.563 623.111 159.563L614.816 159.563C610.042 159.563 606.238 162.452 603.812 166.199 603.57 166.574 605.018 164.367 584.9 194.324 583.197 196.859 583.873 200.295 586.408 201.997 588.941 203.699 592.377 203.026 594.081 200.49L602.374 188.141 602.391 244.237C602.391 248.054 605.485 251.149 609.303 251.149 613.12 251.149 616.215 248.054 616.215 244.237L616.215 213.132 621.745 213.132 621.745 244.237C621.745 248.054 624.84 251.149 628.657 251.149 632.475 251.149 635.569 248.054 635.569 244.237 635.569 184.619 635.553 188.489 635.553 188.04L643.874 200.481C645.574 203.023 649.011 203.699 651.544 202.003Z" fill="#F3781E"></path>
    <path d="M618.98 154.206C626.297 154.206 632.232 148.277 632.232 140.955 632.232 136.184 629.704 132.001 625.915 129.668 626.698 129.115 627.611 128.603 628.689 128.166 629.141 127.983 629.446 127.553 629.469 127.065 629.492 126.577 629.229 126.121 628.796 125.895 626.7 124.807 624.146 124.784 621.736 125.246 622.145 124.481 622.66 123.698 623.321 122.905 623.634 122.53 623.7 122.007 623.49 121.566 623.281 121.125 622.834 120.846 622.345 120.851 617.502 120.907 613.06 125.816 611.29 128.753 610.879 129.435 610.57 130.157 610.375 130.886 607.532 133.316 605.727 136.925 605.727 140.955 605.728 148.277 611.663 154.206 618.98 154.206Z" fill="#F3781E"></path>
    <path d="M559.981 165.883C557.594 162.264 553.796 159.563 549.151 159.563L540.856 159.563C536.13 159.563 532.02 162.198 529.913 166.079 529.658 166.448 511.19 193.952 510.94 194.325 509.237 196.86 509.912 200.295 512.447 201.998 514.981 203.7 518.417 203.026 520.121 200.49L528.414 188.141 528.414 188.294 520.886 218.984C520.535 220.416 520.861 221.929 521.771 223.089 522.681 224.249 524.073 224.926 525.547 224.926L528.431 224.926 528.431 244.237C528.431 248.055 531.525 251.149 535.343 251.149 539.16 251.149 542.255 248.055 542.255 244.237L542.255 224.926 547.785 224.926 547.785 244.237C547.785 248.055 550.879 251.149 554.697 251.149 558.514 251.149 561.609 248.055 561.609 244.237L561.609 224.926 564.46 224.926C565.934 224.926 567.326 224.249 568.236 223.089 569.146 221.929 569.472 220.416 569.121 218.984L561.593 188.292 561.592 188.292 561.592 188.091 569.919 200.49C571.623 203.027 575.059 203.699 577.592 201.998 580.128 200.295 580.803 196.86 579.1 194.325 558.675 163.91 560.22 166.246 559.981 165.883Z" fill="#F3781E"></path>
    <path d="M518.581 158.262C519.067 158.303 519.533 158.056 519.773 157.631 523.414 151.206 529.124 151.751 530.403 149.378 530.58 149.05 530.719 148.713 530.821 148.37 531.211 148.79 531.76 149.037 532.337 149.037 532.565 149.037 532.797 148.999 533.024 148.919 533.408 148.784 533.722 148.545 533.957 148.248 536.329 151.838 540.398 154.207 545.021 154.207 549.644 154.207 553.714 151.838 556.085 148.248 556.32 148.545 556.634 148.784 557.018 148.919 557.245 148.999 557.477 149.037 557.705 149.037 558.282 149.037 558.831 148.79 559.221 148.37 559.324 148.713 559.462 149.05 559.639 149.378 560.917 151.751 566.628 151.206 570.268 157.631 570.509 158.056 570.974 158.303 571.461 158.262 571.949 158.222 572.367 157.902 572.534 157.443 574.192 152.892 571.166 147.003 569.043 144.31 567.216 141.993 564.405 140.742 561.807 142.141 561.715 142.191 561.629 142.249 561.541 142.302L561.563 142.242C561.943 141.161 561.375 139.978 560.294 139.598 559.558 139.338 558.78 139.526 558.236 140.009 557.75 133.138 552.02 127.708 545.022 127.708 538.022 127.708 532.292 133.139 531.807 140.01 531.261 139.527 530.484 139.339 529.749 139.598 528.668 139.978 528.1 141.161 528.48 142.242L528.501 142.302C528.413 142.248 528.328 142.191 528.236 142.141 525.638 140.742 522.827 141.993 521 144.31 518.876 147.003 515.851 152.892 517.508 157.443 517.675 157.902 518.094 158.222 518.581 158.262Z" fill="#F3781E"></path>
  </g>
</svg>
