<?xml version="1.0" encoding="UTF-8"?>
<svg xmlns="http://www.w3.org/2000/svg" xmlns:xlink="http://www.w3.org/1999/xlink" width="96" height="96" xml:space="preserve" overflow="hidden">
  <g transform="translate(-1055 -431)">
    <path d="M1112 449 1139 449 1139 458 1112 458Z" fill="#559264"></path>
    <path d="M1112 449 1134.5 449 1134.5 458 1112 458Z" fill="#71C285"></path>
    <path d="M1106 464 1142 464 1142 518 1106 518Z" fill="#98856E"></path>
    <path d="M1106 464 1137.5 464 1137.5 518 1106 518Z" fill="#CBB292"></path>
    <path d="M1112 501.5 1124 501.5 1124 518 1112 518Z" fill="#CCCCCC"></path>
    <path d="M1112 501.5 1119.5 501.5 1119.5 518 1112 518Z" fill="#F2F2F2"></path>
    <path d="M1124 501.5 1136 501.5 1136 518 1124 518Z" fill="#CCCCCC"></path>
    <path d="M1124 501.5 1131.5 501.5 1131.5 518 1124 518Z" fill="#F2F2F2"></path>
    <path d="M1127 485 1136 485 1136 494 1127 494Z" fill="#849EB4"></path>
    <path d="M1127 485 1131.5 485 1131.5 494 1127 494Z" fill="#B0D3F0"></path>
    <path d="M1127 470 1136 470 1136 479 1127 479Z" fill="#849EB4"></path>
    <path d="M1127 470 1131.5 470 1131.5 479 1127 479Z" fill="#B0D3F0"></path>
    <path d="M1112 470 1121 470 1121 479 1112 479Z" fill="#849EB4"></path>
    <path d="M1112 470 1116.5 470 1116.5 479 1112 479Z" fill="#B0D3F0"></path>
    <path d="M1112 485 1121 485 1121 494 1112 494Z" fill="#849EB4"></path>
    <path d="M1112 485 1116.5 485 1116.5 494 1112 494Z" fill="#B0D3F0"></path>
    <path d="M1058 518 1148 518 1148 524 1058 524Z" fill="#5F443E"></path>
    <path d="M1058 518 1143.5 518 1143.5 524 1058 524Z" fill="#7F5B53"></path>
    <path d="M1061 494 1106 494 1106 518 1061 518Z" fill="#98856E"></path>
    <path d="M1061 494 1101.5 494 1101.5 518 1061 518Z" fill="#CBB292"></path>
    <path d="M1076 518 1076 510.5C1076 506.358 1079.36 503 1083.5 503L1083.5 503C1087.64 503 1091 506.358 1091 510.5L1091 518" fill="#CCCCCC"></path>
    <path d="M1081.25 503.375C1078.14 504.354 1076.01 507.236 1076 510.5L1076 518 1086.5 518 1086.5 510.5C1086.49 507.236 1084.36 504.354 1081.25 503.375Z" fill="#F2F2F2"></path>
    <path d="M1061 434 1083.5 434 1083.5 449 1061 449Z" fill="#849EB4"></path>
    <path d="M1061 434 1079 434 1079 449 1061 449Z" fill="#B0D3F0"></path>
    <path d="M1083.5 434 1106 434 1106 449 1083.5 449Z" fill="#849EB4"></path>
    <path d="M1083.5 434 1101.5 434 1101.5 449 1083.5 449Z" fill="#B0D3F0"></path>
    <path d="M1083.5 449 1106 449 1106 464 1083.5 464Z" fill="#849EB4"></path>
    <path d="M1083.5 449 1101.5 449 1101.5 464 1083.5 464Z" fill="#B0D3F0"></path>
    <path d="M1083.5 464 1106 464 1106 479 1083.5 479Z" fill="#849EB4"></path>
    <path d="M1083.5 464 1101.5 464 1101.5 479 1083.5 479Z" fill="#B0D3F0"></path>
    <path d="M1083.5 479 1106 479 1106 494 1083.5 494Z" fill="#849EB4"></path>
    <path d="M1083.5 479 1101.5 479 1101.5 494 1083.5 494Z" fill="#B0D3F0"></path>
    <path d="M1061 479 1083.5 479 1083.5 494 1061 494Z" fill="#849EB4"></path>
    <path d="M1061 479 1079 479 1079 494 1061 494Z" fill="#B0D3F0"></path>
    <path d="M1061 464 1083.5 464 1083.5 479 1061 479Z" fill="#849EB4"></path>
    <path d="M1061 464 1079 464 1079 479 1061 479Z" fill="#B0D3F0"></path>
    <path d="M1061 449 1083.5 449 1083.5 464 1061 464Z" fill="#849EB4"></path>
    <path d="M1061 449 1079 449 1079 464 1061 464Z" fill="#B0D3F0"></path>
    <path d="M1058 518 1148 518 1148 524 1058 524Z" stroke="#000000" stroke-width="3" stroke-linejoin="round" fill="none"></path>
    <path d="M1061 518 1061 434 1106 434 1106 518" stroke="#000000" stroke-width="3" stroke-linejoin="round" fill="none"></path>
    <path d="M1061 449 1106 449" stroke="#000000" stroke-width="3" stroke-linejoin="round" fill="none"></path>
    <path d="M1083.5 434 1083.5 449" stroke="#000000" stroke-width="3" stroke-linejoin="round" fill="none"></path>
    <path d="M1061 464 1106 464" stroke="#000000" stroke-width="3" stroke-linejoin="round" fill="none"></path>
    <path d="M1083.5 449 1083.5 464" stroke="#000000" stroke-width="3" stroke-linejoin="round" fill="none"></path>
    <path d="M1061 479 1106 479" stroke="#000000" stroke-width="3" stroke-linejoin="round" fill="none"></path>
    <path d="M1083.5 464 1083.5 479" stroke="#000000" stroke-width="3" stroke-linejoin="round" fill="none"></path>
    <path d="M1076 518 1076 510.5C1076 506.358 1079.36 503 1083.5 503L1083.5 503C1087.64 503 1091 506.358 1091 510.5L1091 518" stroke="#000000" stroke-width="3" stroke-linejoin="round" fill="none"></path>
    <path d="M1065.5 444.5 1071.5 438.5" stroke="#000000" stroke-width="3" stroke-linejoin="round" fill="none"></path>
    <path d="M1073 444.5 1079 438.5" stroke="#000000" stroke-width="3" stroke-linejoin="round" fill="none"></path>
    <path d="M1095.5 444.5 1101.5 438.5" stroke="#000000" stroke-width="3" stroke-linejoin="round" fill="none"></path>
    <path d="M1095.5 459.5 1101.5 453.5" stroke="#000000" stroke-width="3" stroke-linejoin="round" fill="none"></path>
    <path d="M1095.5 474.5 1101.5 468.5" stroke="#000000" stroke-width="3" stroke-linejoin="round" fill="none"></path>
    <path d="M1088 444.5 1094 438.5" stroke="#000000" stroke-width="3" stroke-linejoin="round" fill="none"></path>
    <path d="M1088 459.5 1094 453.5" stroke="#000000" stroke-width="3" stroke-linejoin="round" fill="none"></path>
    <path d="M1088 474.5 1094 468.5" stroke="#000000" stroke-width="3" stroke-linejoin="round" fill="none"></path>
    <path d="M1065.5 474.5 1071.5 468.5" stroke="#000000" stroke-width="3" stroke-linejoin="round" fill="none"></path>
    <path d="M1073 474.5 1079 468.5" stroke="#000000" stroke-width="3" stroke-linejoin="round" fill="none"></path>
    <path d="M1061 494 1106 494" stroke="#000000" stroke-width="3" stroke-linejoin="round" fill="none"></path>
    <path d="M1083.5 479 1083.5 494" stroke="#000000" stroke-width="3" stroke-linejoin="round" fill="none"></path>
    <path d="M1095.5 489.5 1101.5 483.5" stroke="#000000" stroke-width="3" stroke-linejoin="round" fill="none"></path>
    <path d="M1088 489.5 1094 483.5" stroke="#000000" stroke-width="3" stroke-linejoin="round" fill="none"></path>
    <path d="M1065.5 489.5 1071.5 483.5" stroke="#000000" stroke-width="3" stroke-linejoin="round" fill="none"></path>
    <path d="M1073 489.5 1079 483.5" stroke="#000000" stroke-width="3" stroke-linejoin="round" fill="none"></path>
    <path d="M1065.5 459.5 1071.5 453.5" stroke="#000000" stroke-width="3" stroke-linejoin="round" fill="none"></path>
    <path d="M1073 459.5 1079 453.5" stroke="#000000" stroke-width="3" stroke-linejoin="round" fill="none"></path>
    <path d="M1106 464 1142 464 1142 518 1106 518Z" stroke="#000000" stroke-width="3" stroke-linejoin="round" fill="none"></path>
    <path d="M1112 470 1121 470 1121 479 1112 479Z" stroke="#000000" stroke-width="3" stroke-linejoin="round" fill="none"></path>
    <path d="M1127 470 1136 470 1136 479 1127 479Z" stroke="#000000" stroke-width="3" stroke-linejoin="round" fill="none"></path>
    <path d="M1112 485 1121 485 1121 494 1112 494Z" stroke="#000000" stroke-width="3" stroke-linejoin="round" fill="none"></path>
    <path d="M1127 485 1136 485 1136 494 1127 494Z" stroke="#000000" stroke-width="3" stroke-linejoin="round" fill="none"></path>
    <path d="M1112 518 1112 501.5 1136 501.5 1136 518" stroke="#000000" stroke-width="3" stroke-linejoin="round" fill="none"></path>
    <path d="M1124 501.5 1124 518" stroke="#000000" stroke-width="3" stroke-linejoin="round" fill="none"></path>
    <path d="M1112 449 1139 449 1139 458 1112 458Z" stroke="#000000" stroke-width="3" stroke-linejoin="round" fill="none"></path>
    <path d="M1115 458 1115 464" stroke="#000000" stroke-width="3" stroke-linejoin="round" fill="none"></path>
    <path d="M1136 458 1136 464" stroke="#000000" stroke-width="3" stroke-linejoin="round" fill="none"></path>
  </g>
</svg>
