<?xml version="1.0" encoding="UTF-8"?>
<svg xmlns="http://www.w3.org/2000/svg" xmlns:xlink="http://www.w3.org/1999/xlink" width="48" height="48" xml:space="preserve" overflow="hidden">
  <defs>
    <clipPath id="clip0">
      <rect x="280" y="0" width="48" height="48"></rect>
    </clipPath>
  </defs>
  <g clip-path="url(#clip0)" transform="translate(-280 0)">
    <path d="M298.291 8.05722C298.291 9.95163 296.755 11.4874 294.861 11.4874 292.967 11.4874 291.431 9.95164 291.431 8.05722 291.431 6.16281 292.967 4.62708 294.861 4.62708 296.755 4.62708 298.291 6.16281 298.291 8.05722Z" fill="#FFFFFF"></path>
    <path d="M316.554 20.2955C316.313 18.5577 315.529 16.9532 315.083 15.2749 315.095 15.1723 315.113 15.0735 315.111 14.9622 315.088 12.3919 314.774 9.85146 314.416 7.31099 314.239 6.06937 312.678 5.40858 311.591 5.7088 311.116 5.8397 310.756 6.08505 310.493 6.40094 309.627 6.11562 308.713 5.98158 307.766 5.97061 305.986 5.94944 305.988 8.7039 307.766 8.72506 308.621 8.73604 309.365 8.87792 310.076 9.19851 310.092 9.33098 310.111 9.46345 310.126 9.59671 309.782 9.73545 309.468 9.97531 309.216 10.3508 307.73 12.5652 304.627 11.8119 302.317 11.6049 301.135 10.6808 299.428 10.6847 298.245 11.699 296.895 12.8552 296.739 14.8861 297.895 16.2352 300.578 19.3659 300.509 24.3339 300.441 29.1397 300.431 29.875 300.422 30.5985 300.422 31.3024 300.422 32.1975 300.788 33.0057 301.378 33.5889 301.103 37.7088 300.05 41.8272 298.525 45.6257 297.571 47.9961 301.403 49.0159 302.342 46.6776 303.936 42.7098 305.018 38.3641 305.323 34.0396 306.243 33.4721 306.856 32.4601 306.856 31.3024 306.856 30.6298 306.868 29.9361 306.875 29.2299 306.935 25.0363 306.994 20.0549 305.068 15.7123 307.015 15.746 308.835 15.5313 310.404 14.5554 310.02 15.9506 309.313 17.1821 308.56 18.437 307.645 19.9639 310.027 21.349 310.939 19.8276 311.464 18.952 311.969 18.067 312.39 17.1444 312.537 17.1695 312.69 17.1821 312.84 17.1821 313.256 18.4417 313.708 19.6935 313.895 21.0292 314.14 22.7819 316.797 22.0317 316.554 20.2955Z" fill="#FFFFFF"></path>
    <path d="M315.024 2.65648C315.024 4.12361 313.835 5.31295 312.368 5.31295 310.9 5.31295 309.711 4.12361 309.711 2.65648 309.711 1.18935 310.9-4.78426e-08 312.368-4.78426e-08 313.835-4.78426e-08 315.024 1.18935 315.024 2.65648Z" fill="#FFFFFF"></path>
  </g>
</svg>
