<?xml version="1.0" encoding="UTF-8"?>
<svg xmlns="http://www.w3.org/2000/svg" xmlns:xlink="http://www.w3.org/1999/xlink" width="259" height="259" xml:space="preserve" overflow="hidden">
  <defs>
    <clipPath id="clip0">
      <rect x="55" y="239" width="259" height="259"></rect>
    </clipPath>
  </defs>
  <g clip-path="url(#clip0)" transform="translate(-55 -239)">
    <path d="M247.723 255.13C245.202 243.985 234.122 236.993 222.977 239.514 216.383 241.006 211.243 245.495 208.667 251.22 219.58 246.99 232.292 250.876 238.713 261.385 241.1 265.291 242.332 269.678 242.351 274.141 247.073 269.29 249.328 262.225 247.723 255.13Z" fill="#F3781E"></path>
    <path d="M232.94 264.913C227.761 256.436 216.692 253.766 208.219 258.944 198.935 264.616 196.725 277.233 203.729 285.737 205.548 285.363 207.465 285.308 209.407 285.633L228.231 288.785C235.697 283.319 237.851 272.951 232.94 264.913Z" fill="#F3781E"></path>
    <path d="M241.862 313.91 235.728 319.946 237.74 320.793 243.423 316.463Z" fill="#F3781E"></path>
    <path d="M274.602 349.426 281.929 334.079 256.788 353.233 263.528 375.67C264.972 380.476 270.039 383.194 274.835 381.751 279.636 380.309 282.359 375.247 280.917 370.446L274.602 349.426Z" fill="#F3781E"></path>
    <path d="M290.694 303.926C287.328 299.508 281.019 298.656 276.602 302.02L241.033 329.119 229.77 320.482C202.017 315.829 203.182 316.175 200.959 315.265 201.717 316.655 202.312 318.164 202.706 319.775 204.503 327.111 201.694 334.631 195.897 339.058L204.151 388.072 215.111 434.142 202.529 482.917C200.864 489.369 204.745 495.95 211.199 497.614 217.658 499.281 224.234 495.39 225.896 488.945L239.226 437.274C239.718 435.371 239.736 433.378 239.281 431.467L228.151 384.679 233.654 383.901 256.573 419.345 261.734 486.853C262.243 493.523 268.072 498.477 274.685 497.965 281.329 497.457 286.304 491.658 285.796 485.014L280.401 414.447C280.248 412.44 279.594 410.505 278.502 408.814 276.429 405.61 259.799 379.89 256.602 374.947L251.328 357.392C248.878 359.259 247.354 360.634 244.315 361.468 239.005 362.922 233.171 361.118 229.649 356.594L208.721 329.683 234.894 349.755C238.49 352.512 243.492 352.527 247.107 349.774L288.789 318.018C293.207 314.652 294.059 308.343 290.694 303.926Z" fill="#F3781E"></path>
    <path d="M265.779 284.946C261.559 278.038 252.539 275.863 245.634 280.081 242.524 281.982 240.376 284.858 239.337 288.074L242.686 287.423 228.562 295.356 208.346 291.972C203.4 291.14 198.721 294.481 197.893 299.426 197.065 304.37 200.403 309.05 205.347 309.878L231.874 314.319 251.577 303.253 246.213 309.137 248.381 312.686C273.548 293.512 271.248 295.257 271.826 294.842L265.779 284.946Z" fill="#F3781E"></path>
    <path d="M140.79 268.273C140.79 279.651 131.567 288.874 120.189 288.874 108.811 288.874 99.588 279.651 99.588 268.273 99.588 256.895 108.811 247.672 120.189 247.672 131.567 247.672 140.79 256.895 140.79 268.273Z" fill="#F3781E"></path>
    <path d="M193.637 321.994C192.411 316.987 187.362 313.923 182.351 315.147L152.365 322.488 127.743 304.543 144.987 311.186 144.16 307.007C142.955 300.924 137.62 296.528 131.42 296.528 123.434 296.528 117.818 296.528 108.954 296.528 102.74 296.528 97.4204 300.912 96.2139 307.007L76.3559 407.337C75.6775 410.763 78.3161 413.937 81.7726 413.937 84.9418 413.937 89.0555 413.937 93.7564 413.937L93.7564 486.071C93.7564 492.659 99.0963 497.998 105.684 497.998 112.272 497.998 117.612 492.658 117.612 486.071L117.612 413.937C119.327 413.937 121.047 413.937 122.762 413.937L122.762 486.071C122.762 492.659 128.102 497.999 134.69 497.999 141.277 497.999 146.617 492.658 146.617 486.071L146.617 413.937C151.319 413.937 155.433 413.937 158.6 413.937 162.076 413.937 164.695 410.757 164.017 407.337L152.904 351.188 151.087 351.633C146.608 352.73 142.095 351.036 139.374 347.675L116.745 319.63 144.872 340.13C147.097 341.752 149.922 342.307 152.59 341.654L186.789 333.282C191.798 332.055 194.864 327.002 193.637 321.994Z" fill="#F3781E"></path>
  </g>
</svg>
