<?xml version="1.0" encoding="UTF-8"?>
<svg xmlns="http://www.w3.org/2000/svg" xmlns:xlink="http://www.w3.org/1999/xlink" width="96" height="96" xml:space="preserve" overflow="hidden">
  <g transform="translate(-68 -238)">
    <path d="M70.4221 248.339C69.0842 248.339 68 249.423 68 250.761L68 321.239C68 322.576 69.0842 323.661 70.4221 323.661L75.2027 323.661 75.2027 248.339 70.4221 248.339Z" fill="#64798A"></path>
    <path d="M161.578 248.339 106.868 248.339 106.868 323.661 161.578 323.661C162.915 323.661 164 322.577 164 321.239L164 250.761C164 249.423 162.916 248.339 161.578 248.339Z" fill="#64798A"></path>
    <path d="M75.2029 248.339 106.868 248.339 106.868 323.659 75.2029 323.659Z" fill="#3A556A"></path>
    <path d="M100.261 241.003 81.809 241.003C80.0885 241.003 78.6937 242.274 78.6937 243.842L78.6937 328.158C78.6937 329.726 80.0885 330.997 81.809 330.997L100.261 330.997C101.982 330.997 103.377 329.726 103.377 328.158L103.377 243.842C103.377 242.274 101.982 241.003 100.261 241.003Z" fill="#E1E6E9"></path>
    <path d="M113.716 256.638 157.156 256.638 157.156 271.026 113.716 271.026Z" fill="#EBF0F3"></path>
    <path d="M113.716 268.854 157.156 268.854 157.156 271.026 113.716 271.026Z" fill="#D5D6DB"></path>
    <path d="M120.782 275.91 115.062 275.91C114.319 275.91 113.716 276.512 113.716 277.255L113.716 282.975C113.716 283.718 114.319 284.32 115.062 284.32L120.782 284.32C121.525 284.32 122.127 283.718 122.127 282.975L122.127 277.255C122.127 276.512 121.525 275.91 120.782 275.91Z" fill="#D5D6DB"></path>
    <path d="M132.456 275.91 126.737 275.91C125.993 275.91 125.391 276.512 125.391 277.255L125.391 282.975C125.391 283.718 125.993 284.32 126.737 284.32L132.456 284.32C133.199 284.32 133.802 283.718 133.802 282.975L133.802 277.255C133.802 276.512 133.2 275.91 132.456 275.91Z" fill="#D5D6DB"></path>
    <path d="M144.131 275.91 138.411 275.91C137.668 275.91 137.066 276.512 137.066 277.255L137.066 282.975C137.066 283.718 137.668 284.32 138.411 284.32L144.131 284.32C144.874 284.32 145.477 283.718 145.477 282.975L145.477 277.255C145.477 276.512 144.874 275.91 144.131 275.91Z" fill="#D5D6DB"></path>
    <path d="M155.806 275.91 150.086 275.91C149.343 275.91 148.741 276.512 148.741 277.255L148.741 282.975C148.741 283.718 149.343 284.32 150.086 284.32L155.806 284.32C156.549 284.32 157.152 283.718 157.152 282.975L157.152 277.255C157.152 276.512 156.549 275.91 155.806 275.91Z" fill="#FCD462"></path>
    <path d="M120.782 287.447 115.062 287.447C114.319 287.447 113.716 288.05 113.716 288.793L113.716 294.513C113.716 295.255 114.319 295.858 115.062 295.858L120.782 295.858C121.525 295.858 122.127 295.255 122.127 294.513L122.127 288.793C122.127 288.05 121.525 287.447 120.782 287.447Z" fill="#D5D6DB"></path>
    <path d="M132.456 287.447 126.737 287.447C125.993 287.447 125.391 288.05 125.391 288.793L125.391 294.513C125.391 295.255 125.993 295.858 126.737 295.858L132.456 295.858C133.199 295.858 133.802 295.255 133.802 294.513L133.802 288.793C133.802 288.05 133.2 287.447 132.456 287.447Z" fill="#D5D6DB"></path>
    <path d="M144.131 287.447 138.411 287.447C137.668 287.447 137.066 288.05 137.066 288.793L137.066 294.513C137.066 295.255 137.668 295.858 138.411 295.858L144.131 295.858C144.874 295.858 145.477 295.255 145.477 294.513L145.477 288.793C145.477 288.05 144.874 287.447 144.131 287.447Z" fill="#D5D6DB"></path>
    <path d="M155.806 287.447 150.086 287.447C149.343 287.447 148.741 288.05 148.741 288.793L148.741 294.513C148.741 295.255 149.343 295.858 150.086 295.858L155.806 295.858C156.549 295.858 157.152 295.255 157.152 294.513L157.152 288.793C157.152 288.05 156.549 287.447 155.806 287.447Z" fill="#44C4A1"></path>
    <path d="M120.782 298.985 115.062 298.985C114.319 298.985 113.716 299.587 113.716 300.33L113.716 306.05C113.716 306.793 114.319 307.396 115.062 307.396L120.782 307.396C121.525 307.396 122.127 306.793 122.127 306.05L122.127 300.33C122.127 299.587 121.525 298.985 120.782 298.985Z" fill="#D5D6DB"></path>
    <path d="M132.456 298.985 126.737 298.985C125.993 298.985 125.391 299.587 125.391 300.33L125.391 306.05C125.391 306.793 125.993 307.396 126.737 307.396L132.456 307.396C133.199 307.396 133.802 306.793 133.802 306.05L133.802 300.33C133.802 299.587 133.2 298.985 132.456 298.985Z" fill="#D5D6DB"></path>
    <path d="M144.131 298.985 138.411 298.985C137.668 298.985 137.066 299.587 137.066 300.33L137.066 306.05C137.066 306.793 137.668 307.396 138.411 307.396L144.131 307.396C144.874 307.396 145.477 306.793 145.477 306.05L145.477 300.33C145.477 299.587 144.874 298.985 144.131 298.985Z" fill="#D5D6DB"></path>
    <path d="M155.806 298.985 150.086 298.985C149.343 298.985 148.741 299.587 148.741 300.33L148.741 306.05C148.741 306.793 149.343 307.396 150.086 307.396L155.806 307.396C156.549 307.396 157.152 306.793 157.152 306.05L157.152 300.33C157.152 299.587 156.549 298.985 155.806 298.985Z" fill="#27A2DB"></path>
    <path d="M120.782 310.522 115.062 310.522C114.319 310.522 113.716 311.125 113.716 311.868L113.716 317.588C113.716 318.331 114.319 318.933 115.062 318.933L120.782 318.933C121.525 318.933 122.127 318.331 122.127 317.588L122.127 311.868C122.127 311.125 121.525 310.522 120.782 310.522Z" fill="#D5D6DB"></path>
    <path d="M132.456 310.522 126.737 310.522C125.993 310.522 125.391 311.125 125.391 311.868L125.391 317.588C125.391 318.331 125.993 318.933 126.737 318.933L132.456 318.933C133.199 318.933 133.802 318.331 133.802 317.588L133.802 311.868C133.802 311.125 133.2 310.522 132.456 310.522Z" fill="#D5D6DB"></path>
    <path d="M144.131 310.522 138.411 310.522C137.668 310.522 137.066 311.125 137.066 311.868L137.066 317.588C137.066 318.331 137.668 318.933 138.411 318.933L144.131 318.933C144.874 318.933 145.477 318.331 145.477 317.588L145.477 311.868C145.477 311.125 144.874 310.522 144.131 310.522Z" fill="#D5D6DB"></path>
    <path d="M155.806 310.522 150.086 310.522C149.343 310.522 148.741 311.125 148.741 311.868L148.741 317.588C148.741 318.331 149.343 318.933 150.086 318.933L155.806 318.933C156.549 318.933 157.152 318.331 157.152 317.588L157.152 311.868C157.152 311.125 156.549 310.522 155.806 310.522Z" fill="#E56353"></path>
  </g>
</svg>
