<?xml version="1.0" encoding="UTF-8"?>
<svg xmlns="http://www.w3.org/2000/svg" xmlns:xlink="http://www.w3.org/1999/xlink" width="96" height="96" xml:space="preserve" overflow="hidden">
  <defs>
    <clipPath id="clip0">
      <rect x="1087" y="208" width="96" height="96"></rect>
    </clipPath>
  </defs>
  <g clip-path="url(#clip0)" transform="translate(-1087 -208)">
    <path d="M1117.53 240.562C1118.01 240.562 1118.48 240.41 1118.89 240.096L1123.12 236.792 1126.31 239.5C1126.97 240.051 1127.82 240.295 1128.65 240.171 1129.48 240.046 1130.22 239.562 1130.68 238.843L1137.01 228.972 1141.33 233.656C1141.94 234.318 1142.79 234.658 1143.66 234.589 1144.53 234.52 1145.32 234.051 1145.82 233.301L1155.34 218.978 1157.8 220.892C1158.1 221.13 1158.42 221.256 1158.73 221.256 1158.73 221.256 1158.73 221.256 1158.73 221.256 1159.34 221.256 1159.78 220.794 1159.89 220.05L1161.42 209.513C1161.49 209.036 1161.4 208.637 1161.15 208.356 1160.83 207.979 1160.26 207.892 1159.66 208.14L1149.81 212.2C1149.29 212.418 1148.96 212.778 1148.91 213.216 1148.85 213.654 1149.06 214.087 1149.51 214.437L1151.86 216.265 1143.24 229.23 1138.89 224.509C1138.27 223.842 1137.42 223.505 1136.54 223.58 1135.67 223.657 1134.88 224.139 1134.39 224.902L1127.88 235.058 1125.23 232.818C1124.09 231.849 1122.34 231.815 1121.15 232.738L1116.18 236.627C1115.22 237.376 1115.05 238.759 1115.8 239.717 1116.23 240.272 1116.88 240.562 1117.53 240.562Z" fill="#91BF38"></path>
    <path d="M1101.45 283.922C1105.17 283.922 1108.19 280.902 1108.19 277.19 1108.19 273.478 1105.17 270.458 1101.45 270.458 1097.74 270.458 1094.72 273.478 1094.72 277.19 1094.72 280.902 1097.74 283.922 1101.45 283.922Z" fill="#91BF38"></path>
    <path d="M1109.08 286.309C1108.59 285.369 1107.63 284.786 1106.57 284.786 1106.54 284.786 1096.66 284.791 1096.64 284.791 1095.51 284.791 1094.72 285.407 1094.25 286.309L1087.89 298.5C1087.54 299.171 1087.48 299.938 1087.7 300.659 1087.93 301.38 1088.42 301.97 1089.09 302.32 1089.44 302.501 1089.81 302.606 1090.2 302.635 1090.27 302.639 1090.33 302.642 1090.4 302.642 1091.46 302.642 1092.42 302.059 1092.91 301.12L1094.75 297.596 1094.75 302.604C1094.75 303.374 1095.38 304 1096.15 304L1107.15 304C1107.92 304 1108.55 303.374 1108.55 302.604L1108.55 297.529 1110.42 301.12C1110.91 302.059 1111.87 302.642 1112.93 302.642 1113 302.642 1113.07 302.639 1113.14 302.635 1113.52 302.606 1113.9 302.501 1114.24 302.32 1114.91 301.97 1115.41 301.381 1115.63 300.659 1115.86 299.938 1115.79 299.171 1115.44 298.5L1109.08 286.309Z" fill="#91BF38"></path>
    <path d="M1128.09 277.19C1128.09 280.902 1131.11 283.922 1134.82 283.922 1138.53 283.922 1141.55 280.902 1141.55 277.19 1141.55 273.478 1138.53 270.458 1134.82 270.458 1131.11 270.458 1128.09 273.478 1128.09 277.19Z" fill="#91BF38"></path>
    <path d="M1142.45 286.309C1141.96 285.369 1141 284.786 1139.94 284.786 1139.91 284.786 1130.02 284.791 1130.01 284.791 1128.88 284.791 1128.09 285.407 1127.62 286.309L1121.26 298.5C1120.91 299.171 1120.84 299.938 1121.07 300.659 1121.3 301.38 1121.79 301.97 1122.46 302.32 1122.81 302.501 1123.18 302.606 1123.56 302.635 1123.63 302.639 1123.7 302.642 1123.77 302.642 1124.83 302.642 1125.79 302.059 1126.28 301.12L1128.12 297.596 1128.12 302.604C1128.12 303.374 1128.74 304 1129.51 304L1140.52 304C1141.29 304 1141.91 303.374 1141.91 302.604L1141.91 297.529 1143.79 301.12C1144.28 302.059 1145.24 302.642 1146.3 302.642 1146.37 302.642 1146.44 302.639 1146.5 302.635 1146.89 302.606 1147.26 302.501 1147.61 302.32 1148.28 301.97 1148.77 301.381 1149 300.659 1149.23 299.938 1149.16 299.171 1148.81 298.5L1142.45 286.309Z" fill="#91BF38"></path>
    <path d="M1161.39 277.19C1161.39 280.902 1164.41 283.922 1168.12 283.922 1171.83 283.922 1174.85 280.902 1174.85 277.19 1174.85 273.478 1171.83 270.458 1168.12 270.458 1164.41 270.458 1161.39 273.478 1161.39 277.19Z" fill="#91BF38"></path>
    <path d="M1182.11 298.5 1175.75 286.309C1175.26 285.369 1174.29 284.786 1173.23 284.786 1173.21 284.786 1163.32 284.791 1163.3 284.791 1162.25 284.791 1161.39 285.407 1160.92 286.309L1154.56 298.5C1154.21 299.171 1154.14 299.938 1154.37 300.659 1154.59 301.38 1155.09 301.97 1155.76 302.32 1156.1 302.501 1156.48 302.606 1156.86 302.635 1156.93 302.639 1157 302.642 1157.07 302.642 1158.13 302.642 1159.09 302.059 1159.58 301.12L1161.42 297.596 1161.42 302.604C1161.42 303.374 1162.04 304 1162.81 304L1173.82 304C1174.59 304 1175.21 303.374 1175.21 302.604L1175.21 297.529 1177.09 301.12C1177.57 302.059 1178.54 302.642 1179.6 302.642 1179.67 302.642 1179.73 302.639 1179.8 302.635 1180.19 302.606 1180.56 302.501 1180.91 302.32 1181.58 301.97 1182.07 301.381 1182.3 300.659 1182.52 299.938 1182.46 299.171 1182.11 298.5Z" fill="#91BF38"></path>
    <path d="M1101.74 264.938C1102.57 264.938 1103.24 264.264 1103.24 263.434L1103.24 258.299 1133.53 258.299 1133.53 263.434C1133.53 264.264 1134.2 264.938 1135.03 264.938 1135.86 264.938 1136.54 264.264 1136.54 263.434L1136.54 258.299 1166.83 258.299 1166.83 263.434C1166.83 264.264 1167.5 264.938 1168.33 264.938 1169.16 264.938 1169.84 264.264 1169.84 263.434L1169.84 257.464C1169.84 256.266 1168.86 255.292 1167.66 255.292L1136.54 255.292 1136.54 248.709 1137.22 249.463C1137.51 249.791 1137.92 249.959 1138.33 249.959 1138.69 249.959 1139.05 249.831 1139.34 249.571 1139.96 249.015 1140.01 248.064 1139.45 247.447L1136.57 244.255C1136.18 243.821 1135.62 243.573 1135.05 243.573 1134.47 243.573 1133.91 243.822 1133.52 244.255L1130.64 247.447C1130.08 248.064 1130.13 249.015 1130.75 249.571 1131.37 250.128 1132.32 250.079 1132.87 249.463L1133.53 248.735 1133.53 255.292 1102.4 255.292C1101.21 255.292 1100.23 256.266 1100.23 257.464L1100.23 263.434C1100.23 264.264 1100.9 264.938 1101.74 264.938Z" fill="#91BF38"></path>
  </g>
</svg>
