<?xml version="1.0" encoding="UTF-8"?>
<svg xmlns="http://www.w3.org/2000/svg" xmlns:xlink="http://www.w3.org/1999/xlink" width="58" height="57" xml:space="preserve" overflow="hidden">
  <g transform="translate(-635 -164)">
    <path d="M14.25 41.5625 21.375 41.5625 21.375 33.25 29.6875 33.25 29.6875 24.9375 38 24.9375 38 16.625 47.5 16.625 47.5 20.1875 41.5625 20.1875 41.5625 28.5 33.25 28.5 33.25 36.8125 24.9375 36.8125 24.9375 45.125 14.25 45.125 14.25 41.5625ZM26.125 25.8281 22.5625 29.3906 22.5625 23.1562 16.3282 29.3907 13.3594 26.422 19.5938 20.1875 13.3594 20.1875 16.9219 16.625 26.125 16.625 26.125 25.8281Z" fill="#FFFFFF" transform="matrix(1.01754 0 0 1 635 164)"></path>
  </g>
</svg>
